<?xml version="1.0" encoding="utf-8"?>
<svg version="1.1" xmlns:xlink="http://www.w3.org/1999/xlink" width="650px" height="200px" xmlns="http://www.w3.org/2000/svg">
  <defs>
    <filter x="501px" y="1110px" width="650px" height="200px" filterUnits="userSpaceOnUse" id="filter113">
      <feOffset dx="0" dy="0" in="SourceAlpha" result="shadowOffsetInner" />
      <feGaussianBlur stdDeviation="5" in="shadowOffsetInner" result="shadowGaussian" />
      <feComposite in2="shadowGaussian" operator="atop" in="SourceAlpha" result="shadowComposite" />
      <feColorMatrix type="matrix" values="0 0 0 0 0.843137254901961  0 0 0 0 0.843137254901961  0 0 0 0 0.843137254901961  0 0 0 0.968627450980392 0  " in="shadowComposite" />
    </filter>
    <g id="widget114">
      <path d="M 513 1122  L 1139 1122  L 1139 1298  L 513 1298  L 513 1122  Z " fill-rule="nonzero" fill="#ffffff" stroke="none" />
      <path d="M 512 1122  A 1 1 0 0 1 513 1121 L 1139 1121  A 1 1 0 0 1 1140 1122 L 1140 1298  A 1 1 0 0 1 1139 1299 L 513 1299  A 1 1 0 0 1 512 1298 L 512 1122  Z " stroke-width="2" stroke="#d7d7d7" fill="none" stroke-opacity="0.458823529411765" />
    </g>
  </defs>
  <g transform="matrix(1 0 0 1 -501 -1110 )">
    <use xlink:href="#widget114" filter="url(#filter113)" />
    <use xlink:href="#widget114" />
  </g>
</svg>