<?xml version="1.0" encoding="utf-8"?>
<svg version="1.1" xmlns:xlink="http://www.w3.org/1999/xlink" width="179px" height="24px" viewBox="977 164  179 24" xmlns="http://www.w3.org/2000/svg">
  <path d="M 978 167  A 2 2 0 0 1 980 165 L 1153 165  A 2 2 0 0 1 1155 167 L 1155 185  A 2 2 0 0 1 1153 187 L 980 187  A 2 2 0 0 1 978 185 L 978 167  Z " fill-rule="nonzero" fill="#ffffff" stroke="none" />
  <path d="M 977.5 167  A 2.5 2.5 0 0 1 980 164.5 L 1153 164.5  A 2.5 2.5 0 0 1 1155.5 167 L 1155.5 185  A 2.5 2.5 0 0 1 1153 187.5 L 980 187.5  A 2.5 2.5 0 0 1 977.5 185 L 977.5 167  Z " stroke-width="1" stroke="#aaaaaa" fill="none" stroke-opacity="0.996078431372549" />
</svg>