<?xml version="1.0" encoding="utf-8"?>
<svg version="1.1" xmlns:xlink="http://www.w3.org/1999/xlink" width="11px" height="7px" xmlns="http://www.w3.org/2000/svg">
  <g transform="matrix(1 0 0 1 -867 -1013 )">
    <path d="M 10.8897795591183 0.721649484536044  C 10.9632598530395 0.801832760595516  11 0.894043528064174  11 0.998281786941448  C 11 1.10252004581901  10.9632598530395 1.19473081328738  10.8897795591183 1.27491408934713  L 5.75350701402806 6.87972508591065  C 5.68002672010689 6.95990836197012  5.59552438209758 7  5.5 7  C 5.40447561790242 7  5.31997327989311 6.95990836197012  5.24649298597194 6.87972508591065  L 0.110220440881704 1.27491408934713  C 0.0367401469605397 1.19473081328738  0 1.10252004581901  0 0.998281786941448  C 0 0.894043528064174  0.0367401469605397 0.801832760595516  0.110220440881704 0.721649484536044  L 0.661322645290625 0.12027491408935  C 0.734802939211704 0.0400916380298781  0.819305277221133 0  0.914829659318571 0  C 1.01035404141615 0  1.09485637942547 0.0400916380298781  1.16833667334666 0.12027491408935  L 5.5 4.84707903780071  L 9.83166332665334 0.12027491408935  C 9.90514362057453 0.0400916380298781  9.98964595858385 0  10.0851703406814 0  C 10.1806947227789 0  10.2651970607883 0.0400916380298781  10.3386773547094 0.12027491408935  L 10.8897795591183 0.721649484536044  Z " fill-rule="nonzero" fill="#dcdfe6" stroke="none" transform="matrix(1 0 0 1 867 1013 )" />
  </g>
</svg>