<?xml version="1.0" encoding="utf-8"?>
<svg version="1.1" xmlns:xlink="http://www.w3.org/1999/xlink" width="301px" height="25px" viewBox="136 71  301 25" xmlns="http://www.w3.org/2000/svg">
  <path d="M 137 74  A 2 2 0 0 1 139 72 L 434 72  A 2 2 0 0 1 436 74 L 436 93  A 2 2 0 0 1 434 95 L 139 95  A 2 2 0 0 1 137 93 L 137 74  Z " fill-rule="nonzero" fill="#ffffff" stroke="none" />
  <path d="M 136.5 74  A 2.5 2.5 0 0 1 139 71.5 L 434 71.5  A 2.5 2.5 0 0 1 436.5 74 L 436.5 93  A 2.5 2.5 0 0 1 434 95.5 L 139 95.5  A 2.5 2.5 0 0 1 136.5 93 L 136.5 74  Z " stroke-width="1" stroke="#aaaaaa" fill="none" stroke-opacity="0.996078431372549" />
</svg>