<?xml version="1.0" encoding="utf-8"?>
<svg version="1.1" xmlns:xlink="http://www.w3.org/1999/xlink" width="160px" height="40px" xmlns="http://www.w3.org/2000/svg">
  <defs>
    <filter x="135px" y="121px" width="160px" height="40px" filterUnits="userSpaceOnUse" id="filter122">
      <feOffset dx="3" dy="3" in="SourceAlpha" result="shadowOffsetInner" />
      <feGaussianBlur stdDeviation="2.5" in="shadowOffsetInner" result="shadowGaussian" />
      <feComposite in2="shadowGaussian" operator="atop" in="SourceAlpha" result="shadowComposite" />
      <feColorMatrix type="matrix" values="0 0 0 0 0.8  0 0 0 0 0.8  0 0 0 0 0.8  0 0 0 0.176470588235294 0  " in="shadowComposite" />
    </filter>
    <g id="widget123">
      <path d="M 137.5 131  A 7.5 7.5 0 0 1 145 123.5 L 286.5 123.5  L 286.5 152.5  L 145 152.5  A 7.5 7.5 0 0 1 137.5 145 L 137.5 131  Z " fill-rule="nonzero" fill="#ffffff" stroke="none" />
      <path d="M 137.5 131  A 7.5 7.5 0 0 1 145 123.5 L 286.5 123.5  L 286.5 152.5  L 145 152.5  A 7.5 7.5 0 0 1 137.5 145 L 137.5 131  Z " stroke-width="1" stroke="#cccccc" fill="none" />
    </g>
  </defs>
  <g transform="matrix(1 0 0 1 -135 -121 )">
    <use xlink:href="#widget123" filter="url(#filter122)" />
    <use xlink:href="#widget123" />
  </g>
</svg>