<?xml version="1.0" encoding="utf-8"?>
<svg version="1.1" xmlns:xlink="http://www.w3.org/1999/xlink" width="112px" height="40px" xmlns="http://www.w3.org/2000/svg">
  <defs>
    <filter x="134px" y="181px" width="112px" height="40px" filterUnits="userSpaceOnUse" id="filter132">
      <feOffset dx="3" dy="3" in="SourceAlpha" result="shadowOffsetInner" />
      <feGaussianBlur stdDeviation="2.5" in="shadowOffsetInner" result="shadowGaussian" />
      <feComposite in2="shadowGaussian" operator="atop" in="SourceAlpha" result="shadowComposite" />
      <feColorMatrix type="matrix" values="0 0 0 0 0.8  0 0 0 0 0.8  0 0 0 0 0.8  0 0 0 0.176470588235294 0  " in="shadowComposite" />
    </filter>
    <g id="widget133">
      <path d="M 136.5 191  A 7.5 7.5 0 0 1 144 183.5 L 237.5 183.5  L 237.5 212.5  L 144 212.5  A 7.5 7.5 0 0 1 136.5 205 L 136.5 191  Z " fill-rule="nonzero" fill="#409eff" stroke="none" fill-opacity="0.996078431372549" />
      <path d="M 136.5 191  A 7.5 7.5 0 0 1 144 183.5 L 237.5 183.5  L 237.5 212.5  L 144 212.5  A 7.5 7.5 0 0 1 136.5 205 L 136.5 191  Z " stroke-width="1" stroke="#cccccc" fill="none" />
    </g>
  </defs>
  <g transform="matrix(1 0 0 1 -134 -181 )">
    <use xlink:href="#widget133" filter="url(#filter132)" />
    <use xlink:href="#widget133" />
  </g>
</svg>