<?xml version="1.0" encoding="utf-8"?>
<svg version="1.1" xmlns:xlink="http://www.w3.org/1999/xlink" width="112px" height="40px" xmlns="http://www.w3.org/2000/svg">
  <defs>
    <filter x="336px" y="181px" width="112px" height="40px" filterUnits="userSpaceOnUse" id="filter134">
      <feOffset dx="3" dy="3" in="SourceAlpha" result="shadowOffsetInner" />
      <feGaussianBlur stdDeviation="2.5" in="shadowOffsetInner" result="shadowGaussian" />
      <feComposite in2="shadowGaussian" operator="atop" in="SourceAlpha" result="shadowComposite" />
      <feColorMatrix type="matrix" values="0 0 0 0 0.8  0 0 0 0 0.8  0 0 0 0 0.8  0 0 0 0.176470588235294 0  " in="shadowComposite" />
    </filter>
    <g id="widget135">
      <path d="M 338.5 183.5  L 432 183.5  A 7.5 7.5 0 0 1 439.5 191 L 439.5 205  A 7.5 7.5 0 0 1 432 212.5 L 338.5 212.5  L 338.5 183.5  Z " fill-rule="nonzero" fill="#ffffff" stroke="none" />
      <path d="M 338.5 183.5  L 432 183.5  A 7.5 7.5 0 0 1 439.5 191 L 439.5 205  A 7.5 7.5 0 0 1 432 212.5 L 338.5 212.5  L 338.5 183.5  Z " stroke-width="1" stroke="#cccccc" fill="none" />
    </g>
  </defs>
  <g transform="matrix(1 0 0 1 -336 -181 )">
    <use xlink:href="#widget135" filter="url(#filter134)" />
    <use xlink:href="#widget135" />
  </g>
</svg>