<?xml version="1.0" encoding="utf-8"?>
<svg version="1.1" xmlns:xlink="http://www.w3.org/1999/xlink" width="615px" height="310px" xmlns="http://www.w3.org/2000/svg">
  <g transform="matrix(1 0 0 1 -171 -145 )">
    <path d="M 172 148  A 2 2 0 0 1 174 146 L 783 146  A 2 2 0 0 1 785 148 L 785 452  A 2 2 0 0 1 783 454 L 174 454  A 2 2 0 0 1 172 452 L 172 148  Z " fill-rule="nonzero" fill="#ffffff" stroke="none" fill-opacity="0" />
    <path d="M 171.5 148  A 2.5 2.5 0 0 1 174 145.5 L 783 145.5  A 2.5 2.5 0 0 1 785.5 148 L 785.5 452  A 2.5 2.5 0 0 1 783 454.5 L 174 454.5  A 2.5 2.5 0 0 1 171.5 452 L 171.5 148  Z " stroke-width="1" stroke-dasharray="9,4" stroke="#cccccc" fill="none" stroke-dashoffset="0.5" />
  </g>
</svg>