<?xml version="1.0" encoding="utf-8"?>
<svg version="1.1" xmlns:xlink="http://www.w3.org/1999/xlink" width="1199px" height="416px" xmlns="http://www.w3.org/2000/svg">
  <g transform="matrix(1 0 0 1 -171 -523 )">
    <path d="M 172 526  A 2 2 0 0 1 174 524 L 1367 524  A 2 2 0 0 1 1369 526 L 1369 936  A 2 2 0 0 1 1367 938 L 174 938  A 2 2 0 0 1 172 936 L 172 526  Z " fill-rule="nonzero" fill="#ffffff" stroke="none" fill-opacity="0" />
    <path d="M 171.5 526  A 2.5 2.5 0 0 1 174 523.5 L 1367 523.5  A 2.5 2.5 0 0 1 1369.5 526 L 1369.5 936  A 2.5 2.5 0 0 1 1367 938.5 L 174 938.5  A 2.5 2.5 0 0 1 171.5 936 L 171.5 526  Z " stroke-width="1" stroke-dasharray="9,4" stroke="#cccccc" fill="none" stroke-dashoffset="0.5" />
  </g>
</svg>