<?xml version="1.0" encoding="utf-8"?>
<svg version="1.1" xmlns:xlink="http://www.w3.org/1999/xlink" width="300px" height="25px" viewBox="1070 110  300 25" xmlns="http://www.w3.org/2000/svg">
  <path d="M 1071 113  A 2 2 0 0 1 1073 111 L 1367 111  A 2 2 0 0 1 1369 113 L 1369 132  A 2 2 0 0 1 1367 134 L 1073 134  A 2 2 0 0 1 1071 132 L 1071 113  Z " fill-rule="nonzero" fill="#ffffff" stroke="none" />
  <path d="M 1070.5 113  A 2.5 2.5 0 0 1 1073 110.5 L 1367 110.5  A 2.5 2.5 0 0 1 1369.5 113 L 1369.5 132  A 2.5 2.5 0 0 1 1367 134.5 L 1073 134.5  A 2.5 2.5 0 0 1 1070.5 132 L 1070.5 113  Z " stroke-width="1" stroke="#aaaaaa" fill="none" stroke-opacity="0.996078431372549" />
</svg>