<?xml version="1.0" encoding="utf-8"?>
<svg version="1.1" xmlns:xlink="http://www.w3.org/1999/xlink" width="1260px" height="940px" xmlns="http://www.w3.org/2000/svg">
  <defs>
    <filter x="150px" y="89px" width="1260px" height="940px" filterUnits="userSpaceOnUse" id="filter149">
      <feOffset dx="0" dy="0" in="SourceAlpha" result="shadowOffsetInner" />
      <feGaussianBlur stdDeviation="5" in="shadowOffsetInner" result="shadowGaussian" />
      <feComposite in2="shadowGaussian" operator="atop" in="SourceAlpha" result="shadowComposite" />
      <feColorMatrix type="matrix" values="0 0 0 0 0.843137254901961  0 0 0 0 0.843137254901961  0 0 0 0 0.843137254901961  0 0 0 0.968627450980392 0  " in="shadowComposite" />
    </filter>
    <g id="widget150">
      <path d="M 162 101  L 1398 101  L 1398 1017  L 162 1017  L 162 101  Z " fill-rule="nonzero" fill="#ffffff" stroke="none" />
      <path d="M 161 101  A 1 1 0 0 1 162 100 L 1398 100  A 1 1 0 0 1 1399 101 L 1399 1017  A 1 1 0 0 1 1398 1018 L 162 1018  A 1 1 0 0 1 161 1017 L 161 101  Z " stroke-width="2" stroke="#d7d7d7" fill="none" stroke-opacity="0.458823529411765" />
    </g>
  </defs>
  <g transform="matrix(1 0 0 1 -150 -89 )">
    <use xlink:href="#widget150" filter="url(#filter149)" />
    <use xlink:href="#widget150" />
  </g>
</svg>