<?xml version="1.0" encoding="utf-8"?>
<svg version="1.1" xmlns:xlink="http://www.w3.org/1999/xlink" width="20px" height="20px" xmlns="http://www.w3.org/2000/svg">
  <g>
    <path d="M 6.4453125 16.1328125  C 7.53038194444444 16.7664930555556  8.71527777777778 17.0833333333333  10 17.0833333333333  L 10 2.91666666666666  C 8.71527777777778 2.91666666666666  7.53038194444444 3.23350694444444  6.4453125 3.8671875  C 5.36024305555556 4.50086805555556  4.50086805555556 5.36024305555556  3.8671875 6.4453125  C 3.23350694444444 7.53038194444444  2.91666666666667 8.71527777777778  2.91666666666667 10  C 2.91666666666667 11.2847222222222  3.23350694444444 12.4696180555556  3.8671875 13.5546875  C 4.50086805555556 14.6397569444444  5.36024305555556 15.4991319444444  6.4453125 16.1328125  Z M 18.6588541666667 4.98046875  C 19.5529513888889 6.51258680555556  20 8.18576388888888  20 10  C 20 11.8142361111111  19.5529513888889 13.4874131944444  18.6588541666667 15.01953125  C 17.7647569444445 16.5516493055556  16.5516493055556 17.7647569444444  15.01953125 18.6588541666667  C 13.4874131944444 19.5529513888889  11.8142361111111 20  10 20  C 8.18576388888889 20  6.51258680555556 19.5529513888889  4.98046875 18.6588541666667  C 3.44835069444444 17.7647569444444  2.23524305555556 16.5516493055556  1.34114583333333 15.01953125  C 0.44704861111111 13.4874131944444  0 11.8142361111111  0 10  C 0 8.18576388888888  0.44704861111111 6.51258680555556  1.34114583333333 4.98046875  C 2.23524305555556 3.44835069444444  3.44835069444444 2.23524305555556  4.98046875 1.34114583333334  C 6.51258680555556 0.447048611111104  8.18576388888889 0  10 0  C 11.8142361111111 0  13.4874131944444 0.447048611111104  15.01953125 1.34114583333334  C 16.5516493055556 2.23524305555556  17.7647569444445 3.44835069444444  18.6588541666667 4.98046875  Z " fill-rule="nonzero" fill="#409eff" stroke="none" />
  </g>
</svg>