<?xml version="1.0" encoding="utf-8"?>
<svg version="1.1" xmlns:xlink="http://www.w3.org/1999/xlink" width="160px" height="1000px" xmlns="http://www.w3.org/2000/svg">
  <defs>
    <filter x="-2px" y="-2px" width="160px" height="1000px" filterUnits="userSpaceOnUse" id="filter151">
      <feOffset dx="3" dy="3" in="SourceAlpha" result="shadowOffsetInner" />
      <feGaussianBlur stdDeviation="2.5" in="shadowOffsetInner" result="shadowGaussian" />
      <feComposite in2="shadowGaussian" operator="atop" in="SourceAlpha" result="shadowComposite" />
      <feColorMatrix type="matrix" values="0 0 0 0 0.8  0 0 0 0 0.8  0 0 0 0 0.8  0 0 0 0.176470588235294 0  " in="shadowComposite" />
    </filter>
    <g id="widget152">
      <path d="M 1 3  A 2 2 0 0 1 3 1 L 147 1  A 2 2 0 0 1 149 3 L 149 987  A 2 2 0 0 1 147 989 L 3 989  A 2 2 0 0 1 1 987 L 1 3  Z " fill-rule="nonzero" fill="#ffffff" stroke="none" />
      <path d="M 0.5 3  A 2.5 2.5 0 0 1 3 0.5 L 147 0.5  A 2.5 2.5 0 0 1 149.5 3 L 149.5 987  A 2.5 2.5 0 0 1 147 989.5 L 3 989.5  A 2.5 2.5 0 0 1 0.5 987 L 0.5 3  Z " stroke-width="1" stroke="#cccccc" fill="none" stroke-opacity="0.458823529411765" />
    </g>
  </defs>
  <g transform="matrix(1 0 0 1 2 2 )">
    <use xlink:href="#widget152" filter="url(#filter151)" />
    <use xlink:href="#widget152" />
  </g>
</svg>