<?xml version="1.0" encoding="utf-8"?>
<svg version="1.1" xmlns:xlink="http://www.w3.org/1999/xlink" width="10px" height="9px" xmlns="http://www.w3.org/2000/svg">
  <g transform="matrix(1 0 0 1 -402 -65 )">
    <path d="M 0.769230769230769 6.91071428571428  L 0.769230769230769 8.35714285714286  L 2.5 8.35714285714286  L 2.5 6.91071428571428  L 0.769230769230769 6.91071428571428  Z M 2.88461538461538 6.91071428571428  L 2.88461538461538 8.35714285714286  L 4.80769230769231 8.35714285714286  L 4.80769230769231 6.91071428571428  L 2.88461538461538 6.91071428571428  Z M 0.769230769230769 4.98214285714286  L 0.769230769230769 6.58928571428572  L 2.5 6.58928571428572  L 2.5 4.98214285714286  L 0.769230769230769 4.98214285714286  Z M 2.88461538461538 4.98214285714286  L 2.88461538461538 6.58928571428572  L 4.80769230769231 6.58928571428572  L 4.80769230769231 4.98214285714286  L 2.88461538461538 4.98214285714286  Z M 0.769230769230769 3.21428571428571  L 0.769230769230769 4.66071428571428  L 2.5 4.66071428571428  L 2.5 3.21428571428571  L 0.769230769230769 3.21428571428571  Z M 5.19230769230769 6.91071428571428  L 5.19230769230769 8.35714285714286  L 7.11538461538462 8.35714285714286  L 7.11538461538462 6.91071428571428  L 5.19230769230769 6.91071428571428  Z M 2.88461538461538 3.21428571428571  L 2.88461538461538 4.66071428571428  L 4.80769230769231 4.66071428571428  L 4.80769230769231 3.21428571428571  L 2.88461538461538 3.21428571428571  Z M 7.5 6.91071428571428  L 7.5 8.35714285714286  L 9.23076923076923 8.35714285714286  L 9.23076923076923 6.91071428571428  L 7.5 6.91071428571428  Z M 5.19230769230769 4.98214285714286  L 5.19230769230769 6.58928571428572  L 7.11538461538462 6.58928571428572  L 7.11538461538462 4.98214285714286  L 5.19230769230769 4.98214285714286  Z M 3.01983173076923 2.36300223214286  C 3.05789262820513 2.33119419642857  3.07692307692308 2.29352678571428  3.07692307692308 2.25  L 3.07692307692308 0.803571428571429  C 3.07692307692308 0.760044642857143  3.05789262820513 0.722377232142857  3.01983173076923 0.690569196428571  C 2.98177083333333 0.658761160714285  2.93669871794872 0.642857142857143  2.88461538461538 0.642857142857143  L 2.5 0.642857142857143  C 2.44791666666667 0.642857142857143  2.40284455128205 0.658761160714285  2.36478365384615 0.690569196428571  C 2.32672275641026 0.722377232142857  2.30769230769231 0.760044642857143  2.30769230769231 0.803571428571429  L 2.30769230769231 2.25  C 2.30769230769231 2.29352678571428  2.32672275641026 2.33119419642857  2.36478365384615 2.36300223214286  C 2.40284455128205 2.39481026785714  2.44791666666667 2.41071428571429  2.5 2.41071428571429  L 2.88461538461538 2.41071428571429  C 2.93669871794872 2.41071428571429  2.98177083333333 2.39481026785714  3.01983173076923 2.36300223214286  Z M 7.5 4.98214285714286  L 7.5 6.58928571428572  L 9.23076923076923 6.58928571428572  L 9.23076923076923 4.98214285714286  L 7.5 4.98214285714286  Z M 5.19230769230769 3.21428571428571  L 5.19230769230769 4.66071428571428  L 7.11538461538462 4.66071428571428  L 7.11538461538462 3.21428571428571  L 5.19230769230769 3.21428571428571  Z M 7.5 3.21428571428571  L 7.5 4.66071428571428  L 9.23076923076923 4.66071428571428  L 9.23076923076923 3.21428571428571  L 7.5 3.21428571428571  Z M 7.63521634615385 2.36300223214286  C 7.67327724358974 2.33119419642857  7.69230769230769 2.29352678571428  7.69230769230769 2.25  L 7.69230769230769 0.803571428571429  C 7.69230769230769 0.760044642857143  7.67327724358974 0.722377232142857  7.63521634615385 0.690569196428571  C 7.59715544871795 0.658761160714285  7.55208333333333 0.642857142857143  7.5 0.642857142857143  L 7.11538461538462 0.642857142857143  C 7.06330128205128 0.642857142857143  7.01822916666667 0.658761160714285  6.98016826923077 0.690569196428571  C 6.94210737179487 0.722377232142857  6.92307692307692 0.760044642857143  6.92307692307692 0.803571428571429  L 6.92307692307692 2.25  C 6.92307692307692 2.29352678571428  6.94210737179487 2.33119419642857  6.98016826923077 2.36300223214286  C 7.01822916666667 2.39481026785714  7.06330128205128 2.41071428571429  7.11538461538462 2.41071428571429  L 7.5 2.41071428571429  C 7.55208333333333 2.41071428571429  7.59715544871795 2.39481026785714  7.63521634615385 2.36300223214286  Z M 9.77163461538462 1.4765625  C 9.92387820512821 1.60379464285714  10 1.75446428571429  10 1.92857142857143  L 10 8.35714285714286  C 10 8.53125  9.92387820512821 8.68191964285714  9.77163461538462 8.80915178571429  C 9.61939102564103 8.93638392857143  9.43910256410257 9  9.23076923076923 9  L 0.769230769230769 9  C 0.560897435897436 9  0.380608974358974 8.93638392857143  0.228365384615385 8.80915178571429  C 0.0761217948717949 8.68191964285714  0 8.53125  0 8.35714285714286  L 0 1.92857142857143  C 0 1.75446428571429  0.0761217948717949 1.60379464285714  0.228365384615385 1.4765625  C 0.380608974358974 1.34933035714286  0.560897435897436 1.28571428571429  0.769230769230769 1.28571428571429  L 1.53846153846154 1.28571428571429  L 1.53846153846154 0.803571428571429  C 1.53846153846154 0.582589285714286  1.63261217948718 0.393415178571428  1.82091346153846 0.236049107142857  C 2.00921474358974 0.0786830357142858  2.23557692307692 0  2.5 0  L 2.88461538461538 0  C 3.14903846153846 0  3.37540064102564 0.0786830357142858  3.56370192307692 0.236049107142857  C 3.75200320512821 0.393415178571428  3.84615384615385 0.582589285714286  3.84615384615385 0.803571428571429  L 3.84615384615385 1.28571428571429  L 6.15384615384615 1.28571428571429  L 6.15384615384615 0.803571428571429  C 6.15384615384615 0.582589285714286  6.2479967948718 0.393415178571428  6.43629807692308 0.236049107142857  C 6.62459935897436 0.0786830357142858  6.85096153846154 0  7.11538461538462 0  L 7.5 0  C 7.76442307692308 0  7.99078525641026 0.0786830357142858  8.17908653846154 0.236049107142857  C 8.36738782051282 0.393415178571428  8.46153846153846 0.582589285714286  8.46153846153846 0.803571428571429  L 8.46153846153846 1.28571428571429  L 9.23076923076923 1.28571428571429  C 9.43910256410257 1.28571428571429  9.61939102564103 1.34933035714286  9.77163461538462 1.4765625  Z " fill-rule="nonzero" fill="#8c8c8c" stroke="none" transform="matrix(1 0 0 1 402 65 )" />
  </g>
</svg>