<?xml version="1.0" encoding="utf-8"?>
<svg version="1.1" xmlns:xlink="http://www.w3.org/1999/xlink" width="167px" height="27px" viewBox="343 18  167 27" xmlns="http://www.w3.org/2000/svg">
  <path d="M 344 21  A 2 2 0 0 1 346 19 L 507 19  A 2 2 0 0 1 509 21 L 509 42  A 2 2 0 0 1 507 44 L 346 44  A 2 2 0 0 1 344 42 L 344 21  Z " fill-rule="nonzero" fill="#f0f0f0" stroke="none" />
  <path d="M 343.5 21  A 2.5 2.5 0 0 1 346 18.5 L 507 18.5  A 2.5 2.5 0 0 1 509.5 21 L 509.5 42  A 2.5 2.5 0 0 1 507 44.5 L 346 44.5  A 2.5 2.5 0 0 1 343.5 42 L 343.5 21  Z " stroke-width="1" stroke="#aaaaaa" fill="none" stroke-opacity="0.996078431372549" />
</svg>