<?xml version="1.0" encoding="utf-8"?>
<svg version="1.1" xmlns:xlink="http://www.w3.org/1999/xlink" width="1256px" height="665px" xmlns="http://www.w3.org/2000/svg">
  <defs>
    <filter x="150px" y="370px" width="1256px" height="665px" filterUnits="userSpaceOnUse" id="filter29">
      <feOffset dx="0" dy="0" in="SourceAlpha" result="shadowOffsetInner" />
      <feGaussianBlur stdDeviation="5" in="shadowOffsetInner" result="shadowGaussian" />
      <feComposite in2="shadowGaussian" operator="atop" in="SourceAlpha" result="shadowComposite" />
      <feColorMatrix type="matrix" values="0 0 0 0 0.843137254901961  0 0 0 0 0.843137254901961  0 0 0 0 0.843137254901961  0 0 0 0.968627450980392 0  " in="shadowComposite" />
    </filter>
    <g id="widget30">
      <path d="M 162 382  L 1394 382  L 1394 1023  L 162 1023  L 162 382  Z " fill-rule="nonzero" fill="#ffffff" stroke="none" />
      <path d="M 161 382  A 1 1 0 0 1 162 381 L 1394 381  A 1 1 0 0 1 1395 382 L 1395 1023  A 1 1 0 0 1 1394 1024 L 162 1024  A 1 1 0 0 1 161 1023 L 161 382  Z " stroke-width="2" stroke="#d7d7d7" fill="none" stroke-opacity="0.458823529411765" />
    </g>
  </defs>
  <g transform="matrix(1 0 0 1 -150 -370 )">
    <use xlink:href="#widget30" filter="url(#filter29)" />
    <use xlink:href="#widget30" />
  </g>
</svg>