<?xml version="1.0" encoding="utf-8"?>
<svg version="1.1" xmlns:xlink="http://www.w3.org/1999/xlink" width="17px" height="19px" xmlns="http://www.w3.org/2000/svg">
  <g transform="matrix(1 0 0 1 -1174 -18 )">
    <path d="M 8.5 18.1517857142857  C 8.60897435897414 18.1517857142857  8.66346153846166 18.0952380952381  8.66346153846166 17.9821428571429  C 8.66346153846166 17.8690476190476  8.60897435897414 17.8125  8.5 17.8125  C 8.09815705128176 17.8125  7.75250400641016 17.6622953869048  7.46304086538476 17.3618861607143  C 7.17357772435912 17.0614769345238  7.02884615384596 16.7027529761905  7.02884615384596 16.2857142857143  C 7.02884615384596 16.1726190476191  6.97435897435912 16.1160714285714  6.86538461538476 16.1160714285714  C 6.75641025641016 16.1160714285714  6.70192307692309 16.1726190476191  6.70192307692309 16.2857142857143  C 6.70192307692309 16.8017113095238  6.87730368589746 17.2417224702381  7.22806490384596 17.6057477678571  C 7.57882612179492 17.9697730654762  8.00280448717922 18.1517857142857  8.5 18.1517857142857  Z M 16.0703125 13.9955357142857  C 16.3495592948718 14.3206845238095  16.6594551282051 14.6316964285714  17 14.9285714285714  C 17 15.2961309523809  16.8705929487182 15.6142113095238  16.611778846154 15.8828125  C 16.3529647435898 16.1514136904762  16.0464743589741 16.2857142857143  15.6923076923076 16.2857142857143  L 11.1153846153848 16.2857142857143  C 11.1153846153848 17.0349702380952  10.8599759615383 17.6746651785714  10.349158653846 18.2047991071429  C 9.83834134615404 18.7349330357143  9.22195512820508 19  8.5 19  C 7.77804487179492 19  7.16165865384596 18.7349330357143  6.65084134615404 18.2047991071429  C 6.14002403846166 17.6746651785714  5.88461538461524 17.0349702380952  5.88461538461524 16.2857142857143  L 1.30769230769238 16.2857142857143  C 0.953525641025863 16.2857142857143  0.647035256410163 16.1514136904762  0.388221153845961 15.8828125  C 0.12940705128176 15.6142113095238  0 15.2961309523809  0 14.9285714285714  C 0.340544871794918 14.6316964285714  0.650440705128176 14.3206845238095  0.9296875 13.9955357142857  C 1.20893429487182 13.6703869047619  1.49839743589746 13.248046875  1.79807692307691 12.728515625  C 2.09775641025658 12.208984375  2.35146233974342 11.6488095238095  2.55919471153834 11.0479910714286  C 2.76692708333348 10.4471726190476  2.93719951923072 9.71912202380953  3.07001201923072 8.86383928571428  C 3.20282451923072 8.00855654761905  3.26923076923072 7.08965773809523  3.26923076923072 6.10714285714286  C 3.26923076923072 5.03273809523809  3.66766826923072 4.03431919642857  4.46454326923072 3.11188616071429  C 5.26141826923072 2.189453125  6.30689102564088 1.62927827380952  7.60096153846166 1.43136160714286  C 7.54647435897414 1.29706101190476  7.51923076923072 1.15922619047619  7.51923076923072 1.01785714285714  C 7.51923076923072 0.735119047619049  7.61458333333348 0.494791666666664  7.80528846153834 0.296875  C 7.99599358974342 0.0989583333333357  8.22756410256397 0  8.5 0  C 8.77243589743603 0  9.00400641025658 0.0989583333333357  9.19471153846166 0.296875  C 9.38541666666652 0.494791666666664  9.48076923076928 0.735119047619049  9.48076923076928 1.01785714285714  C 9.48076923076928 1.15922619047619  9.45352564102586 1.29706101190476  9.39903846153834 1.43136160714286  C 10.6931089743591 1.62927827380952  11.7385817307693 2.189453125  12.5354567307693 3.11188616071429  C 13.3323317307693 4.03431919642857  13.7307692307693 5.03273809523809  13.7307692307693 6.10714285714286  C 13.7307692307693 7.08965773809523  13.7971754807693 8.00855654761905  13.9299879807693 8.86383928571428  C 14.0628004807693 9.71912202380953  14.2330729166665 10.4471726190476  14.4408052884617 11.0479910714286  C 14.6485376602566 11.6488095238095  14.9022435897434 12.208984375  15.2019230769231 12.728515625  C 15.5016025641025 13.248046875  15.7910657051282 13.6703869047619  16.0703125 13.9955357142857  Z " fill-rule="nonzero" fill="#ffffff" stroke="none" transform="matrix(1 0 0 1 1174 18 )" />
  </g>
</svg>