<?xml version="1.0" encoding="utf-8"?>
<svg version="1.1" xmlns:xlink="http://www.w3.org/1999/xlink" width="12px" height="11px" xmlns="http://www.w3.org/2000/svg">
  <g transform="matrix(1 0 0 1 -6 -69 )">
    <path d="M 0 8.67428571428572  L 2.75 8.67428571428572  L 2.75 9.63809523809523  L 0 9.63809523809523  L 0 8.67428571428572  Z M 3.5 7.71047619047619  L 5.5 7.71047619047619  C 5.63541666666667 7.71047619047619  5.75260416666667 7.75816468253968  5.8515625 7.85354166666666  C 5.95052083333333 7.94891865079365  6 8.06186507936508  6 8.19238095238095  L 6 10.12  C 6 10.2505158730159  5.95052083333333 10.3634623015873  5.8515625 10.4588392857143  C 5.75260416666667 10.5542162698413  5.63541666666667 10.6019047619048  5.5 10.6019047619048  L 3.5 10.6019047619048  C 3.36458333333333 10.6019047619048  3.24739583333333 10.5542162698413  3.1484375 10.4588392857143  C 3.04947916666667 10.3634623015873  3 10.2505158730159  3 10.12  L 3 8.19238095238095  C 3 8.06186507936508  3.04947916666667 7.94891865079365  3.1484375 7.85354166666666  C 3.24739583333333 7.75816468253968  3.36458333333333 7.71047619047619  3.5 7.71047619047619  Z M 0 4.81904761904762  L 6.75 4.81904761904762  L 6.75 5.78285714285714  L 0 5.78285714285714  L 0 4.81904761904762  Z M 0 0.963809523809526  L 1.75 0.963809523809526  L 1.75 1.92761904761904  L 0 1.92761904761904  L 0 0.963809523809526  Z M 6.25 8.67428571428572  L 12 8.67428571428572  L 12 9.63809523809523  L 6.25 9.63809523809523  L 6.25 8.67428571428572  Z M 2.5 0  L 4.5 0  C 4.63541666666667 0  4.75260416666667 0.0476884920634933  4.8515625 0.14306547619048  C 4.95052083333333 0.238442460317459  5 0.351388888888889  5 0.481904761904763  L 5 2.40952380952381  C 5 2.54003968253968  4.95052083333333 2.65298611111111  4.8515625 2.7483630952381  C 4.75260416666667 2.84374007936508  4.63541666666667 2.89142857142857  4.5 2.89142857142857  L 2.5 2.89142857142857  C 2.36458333333333 2.89142857142857  2.24739583333333 2.84374007936508  2.1484375 2.7483630952381  C 2.04947916666667 2.65298611111111  2 2.54003968253968  2 2.40952380952381  L 2 0.481904761904763  C 2 0.351388888888889  2.04947916666667 0.238442460317459  2.1484375 0.14306547619048  C 2.24739583333333 0.0476884920634933  2.36458333333333 0  2.5 0  Z M 7.5 3.85523809523809  L 9.5 3.85523809523809  C 9.63541666666667 3.85523809523809  9.75260416666667 3.90292658730159  9.8515625 3.99830357142857  C 9.95052083333333 4.09368055555555  10 4.20662698412698  10 4.33714285714286  L 10 6.2647619047619  C 10 6.39527777777777  9.95052083333333 6.5082242063492  9.8515625 6.60360119047619  C 9.75260416666667 6.69897817460317  9.63541666666667 6.74666666666666  9.5 6.74666666666666  L 7.5 6.74666666666666  C 7.36458333333333 6.74666666666666  7.24739583333333 6.69897817460317  7.1484375 6.60360119047619  C 7.04947916666667 6.5082242063492  7 6.39527777777777  7 6.2647619047619  L 7 4.33714285714286  C 7 4.20662698412698  7.04947916666667 4.09368055555555  7.1484375 3.99830357142857  C 7.24739583333333 3.90292658730159  7.36458333333333 3.85523809523809  7.5 3.85523809523809  Z M 10.25 4.81904761904762  L 12 4.81904761904762  L 12 5.78285714285714  L 10.25 5.78285714285714  L 10.25 4.81904761904762  Z M 5.25 0.963809523809526  L 12 0.963809523809526  L 12 1.92761904761904  L 5.25 1.92761904761904  L 5.25 0.963809523809526  Z " fill-rule="nonzero" fill="#aaaaaa" stroke="none" transform="matrix(1 0 0 1 6 69 )" />
  </g>
</svg>