<?xml version="1.0" encoding="utf-8"?>
<svg version="1.1" xmlns:xlink="http://www.w3.org/1999/xlink" width="14px" height="11px" xmlns="http://www.w3.org/2000/svg">
  <g transform="matrix(1 0 0 1 -5 -270 )">
    <path d="M 2.625 5.40941176470589  L 4.375 5.40941176470589  L 4.375 9.01568627450981  L 2.625 9.01568627450981  L 2.625 5.40941176470589  Z M 5.25 1.80313725490196  L 7 1.80313725490196  L 7 9.01568627450981  L 5.25 9.01568627450981  L 5.25 1.80313725490196  Z M 1 10  L 14 10  L 14 10.8188235294118  L 0 10.8188235294118  L 0 0  L 1 0  L 1 10  Z M 7.875 3.60627450980392  L 9.625 3.60627450980392  L 9.625 9.01568627450981  L 7.875 9.01568627450981  L 7.875 3.60627450980392  Z M 10.5 0.901568627450988  L 12.25 0.901568627450988  L 12.25 9.01568627450981  L 10.5 9.01568627450981  L 10.5 0.901568627450988  Z " fill-rule="nonzero" fill="#aaaaaa" stroke="none" transform="matrix(1 0 0 1 5 270 )" />
  </g>
</svg>