<?xml version="1.0" encoding="utf-8"?>
<svg version="1.1" xmlns:xlink="http://www.w3.org/1999/xlink" width="10px" height="11px" xmlns="http://www.w3.org/2000/svg">
  <g transform="matrix(1 0 0 1 -7 -320 )">
    <path d="M 0.76923076923077 8.41582556935818  L 0.76923076923077 10.1772774327122  L 2.5 10.1772774327122  L 2.5 8.41582556935818  L 0.76923076923077 8.41582556935818  Z M 2.88461538461538 8.41582556935818  L 2.88461538461538 10.1772774327122  L 4.8076923076923 10.1772774327122  L 4.8076923076923 8.41582556935818  L 2.88461538461538 8.41582556935818  Z M 0.76923076923077 6.06722308488613  L 0.76923076923077 8.02439182194618  L 2.5 8.02439182194618  L 2.5 6.06722308488613  L 0.76923076923077 6.06722308488613  Z M 2.88461538461538 6.06722308488613  L 2.88461538461538 8.02439182194618  L 4.8076923076923 8.02439182194618  L 4.8076923076923 6.06722308488613  L 2.88461538461538 6.06722308488613  Z M 0.76923076923077 3.91433747412008  L 0.76923076923077 5.67578933747412  L 2.5 5.67578933747412  L 2.5 3.91433747412008  L 0.76923076923077 3.91433747412008  Z M 5.1923076923077 8.41582556935818  L 5.1923076923077 10.1772774327122  L 7.11538461538462 10.1772774327122  L 7.11538461538462 8.41582556935818  L 5.1923076923077 8.41582556935818  Z M 2.88461538461538 3.91433747412008  L 2.88461538461538 5.67578933747412  L 4.8076923076923 5.67578933747412  L 4.8076923076923 3.91433747412008  L 2.88461538461538 3.91433747412008  Z M 7.5 8.41582556935818  L 7.5 10.1772774327122  L 9.23076923076924 10.1772774327122  L 9.23076923076924 8.41582556935818  L 7.5 8.41582556935818  Z M 5.1923076923077 6.06722308488613  L 5.1923076923077 8.02439182194618  L 7.11538461538462 8.02439182194618  L 7.11538461538462 6.06722308488613  L 5.1923076923077 6.06722308488613  Z M 3.01983173076923 2.87764965870859  C 3.05789262820513 2.83891402745428  3.07692307692308 2.79304288517943  3.07692307692308 2.74003623188405  L 3.07692307692308 0.978584368530012  C 3.07692307692308 0.925577715234646  3.05789262820513 0.8797065729598  3.01983173076923 0.8409709417055  C 2.98177083333333 0.802235310451172  2.93669871794872 0.782867494824015  2.88461538461538 0.782867494824015  L 2.5 0.782867494824015  C 2.44791666666667 0.782867494824015  2.40284455128205 0.802235310451172  2.36478365384615 0.8409709417055  C 2.32672275641026 0.8797065729598  2.30769230769231 0.925577715234646  2.30769230769231 0.978584368530012  L 2.30769230769231 2.74003623188405  C 2.30769230769231 2.79304288517943  2.32672275641026 2.83891402745428  2.36478365384615 2.87764965870859  C 2.40284455128205 2.91638528996291  2.44791666666667 2.93575310559006  2.5 2.93575310559006  L 2.88461538461538 2.93575310559006  C 2.93669871794872 2.93575310559006  2.98177083333333 2.91638528996291  3.01983173076923 2.87764965870859  Z M 7.5 6.06722308488613  L 7.5 8.02439182194618  L 9.23076923076924 8.02439182194618  L 9.23076923076924 6.06722308488613  L 7.5 6.06722308488613  Z M 5.1923076923077 3.91433747412008  L 5.1923076923077 5.67578933747412  L 7.11538461538462 5.67578933747412  L 7.11538461538462 3.91433747412008  L 5.1923076923077 3.91433747412008  Z M 7.5 3.91433747412008  L 7.5 5.67578933747412  L 9.23076923076924 5.67578933747412  L 9.23076923076924 3.91433747412008  L 7.5 3.91433747412008  Z M 7.63521634615384 2.87764965870859  C 7.67327724358974 2.83891402745428  7.6923076923077 2.79304288517943  7.6923076923077 2.74003623188405  L 7.6923076923077 0.978584368530012  C 7.6923076923077 0.925577715234646  7.67327724358974 0.8797065729598  7.63521634615384 0.8409709417055  C 7.59715544871796 0.802235310451172  7.55208333333334 0.782867494824015  7.5 0.782867494824015  L 7.11538461538462 0.782867494824015  C 7.06330128205128 0.782867494824015  7.01822916666666 0.802235310451172  6.98016826923076 0.8409709417055  C 6.94210737179488 0.8797065729598  6.92307692307692 0.925577715234646  6.92307692307692 0.978584368530012  L 6.92307692307692 2.74003623188405  C 6.92307692307692 2.79304288517943  6.94210737179488 2.83891402745428  6.98016826923076 2.87764965870859  C 7.01822916666666 2.91638528996291  7.06330128205128 2.93575310559006  7.11538461538462 2.93575310559006  L 7.5 2.93575310559006  C 7.55208333333334 2.93575310559006  7.59715544871796 2.91638528996291  7.63521634615384 2.87764965870859  Z M 9.77163461538462 1.79814877717391  C 9.9238782051282 1.95309130219117  10 2.13657587129055  10 2.34860248447205  L 10 10.1772774327122  C 10 10.3893040458937  9.9238782051282 10.5727886149931  9.77163461538462 10.7277311400104  C 9.61939102564102 10.8826736650276  9.43910256410256 10.9601449275362  9.23076923076924 10.9601449275362  L 0.76923076923077 10.9601449275362  C 0.560897435897438 10.9601449275362  0.380608974358971 10.8826736650276  0.228365384615382 10.7277311400104  C 0.0761217948717919 10.5727886149931  0 10.3893040458937  0 10.1772774327122  L 0 2.34860248447205  C 0 2.13657587129055  0.0761217948717919 1.95309130219117  0.228365384615382 1.79814877717391  C 0.380608974358971 1.64320625215666  0.560897435897438 1.56573498964804  0.76923076923077 1.56573498964804  L 1.53846153846154 1.56573498964804  L 1.53846153846154 0.978584368530012  C 1.53846153846154 0.709473667184258  1.63261217948718 0.479098597092817  1.82091346153846 0.28745915825569  C 2.00921474358974 0.0958197194185635  2.23557692307692 0  2.5 0  L 2.88461538461538 0  C 3.14903846153846 0  3.37540064102564 0.0958197194185635  3.56370192307692 0.28745915825569  C 3.7520032051282 0.479098597092817  3.84615384615384 0.709473667184258  3.84615384615384 0.978584368530012  L 3.84615384615384 1.56573498964804  L 6.15384615384616 1.56573498964804  L 6.15384615384616 0.978584368530012  C 6.15384615384616 0.709473667184258  6.2479967948718 0.479098597092817  6.43629807692308 0.28745915825569  C 6.62459935897436 0.0958197194185635  6.85096153846154 0  7.11538461538462 0  L 7.5 0  C 7.76442307692308 0  7.99078525641026 0.0958197194185635  8.17908653846154 0.28745915825569  C 8.36738782051282 0.479098597092817  8.46153846153846 0.709473667184258  8.46153846153846 0.978584368530012  L 8.46153846153846 1.56573498964804  L 9.23076923076924 1.56573498964804  C 9.43910256410256 1.56573498964804  9.61939102564102 1.64320625215666  9.77163461538462 1.79814877717391  Z " fill-rule="nonzero" fill="#aaaaaa" stroke="none" transform="matrix(1 0 0 1 7 320 )" />
  </g>
</svg>