<?xml version="1.0" encoding="utf-8"?>
<svg version="1.1" xmlns:xlink="http://www.w3.org/1999/xlink" width="12px" height="11px" xmlns="http://www.w3.org/2000/svg">
  <g transform="matrix(1 0 0 1 -6 -219 )">
    <path d="M 5.13125 6.48020695312007  C 5.44375 6.17482491008896  5.6 5.80633057816476  5.6 5.37472395734746  C 5.6 4.94311733653016  5.44375 4.57462300460597  5.13125 4.26924096157487  C 4.81875 3.96385891854375  4.44166666666667 3.8111678970282  4 3.8111678970282  C 3.55833333333333 3.8111678970282  3.18125 3.96385891854375  2.86875 4.26924096157487  C 2.55625 4.57462300460597  2.4 4.94311733653016  2.4 5.37472395734746  C 2.4 5.80633057816476  2.55625 6.17482491008896  2.86875 6.48020695312007  C 3.18125 6.78558899615117  3.55833333333333 6.93828001766672  4 6.93828001766672  C 4.44166666666667 6.93828001766672  4.81875 6.78558899615117  5.13125 6.48020695312007  Z M 10.165625 9.0545775758723  C 10.321875 8.90188655435674  10.4 8.71763938839464  10.4 8.501836077986  C 10.4 8.29010452815109  10.3208333333333 8.10687530233243  10.1625 7.95214840053  C 10.0041666666667 7.79742149872758  9.81666666666667 7.72005804782636  9.6 7.72005804782636  C 9.38333333333334 7.72005804782636  9.19583333333334 7.79742149872758  9.0375 7.95214840053  C 8.87916666666667 8.10687530233243  8.8 8.29010452815109  8.8 8.501836077986  C 8.8 8.71763938839464  8.878125 8.90188655435674  9.034375 9.0545775758723  C 9.190625 9.20726859738785  9.37916666666667 9.28361410814562  9.6 9.28361410814562  C 9.82083333333333 9.28361410814562  10.009375 9.20726859738785  10.165625 9.0545775758723  Z M 10.165625 2.80035333459524  C 10.321875 2.64766231307969  10.4 2.46341514711759  10.4 2.24761183670894  C 10.4 2.03588028687404  10.3208333333333 1.85265106105538  10.1625 1.69792415925295  C 10.0041666666667 1.54319725745052  9.81666666666667 1.46583380654931  9.6 1.46583380654931  C 9.38333333333334 1.46583380654931  9.19583333333334 1.54319725745052  9.0375 1.69792415925295  C 8.87916666666667 1.85265106105538  8.8 2.03588028687404  8.8 2.24761183670894  C 8.8 2.46341514711759  8.878125 2.64766231307969  9.034375 2.80035333459524  C 9.190625 2.9530443561108  9.37916666666667 3.02938986686857  9.6 3.02938986686857  C 9.82083333333333 3.02938986686857  10.009375 2.9530443561108  10.165625 2.80035333459524  Z M 7.95625 4.69982964224872  C 7.98541666666667 4.73443960712558  8 4.77413927271962  8 4.81892863903085  L 8 5.94884219824594  C 8 5.98955980398342  7.98541666666667 6.02925946957746  7.95625 6.06794119502808  C 7.92708333333333 6.10662292047868  7.89375 6.12799966349086  7.85625 6.13207142406461  L 6.8875 6.27865480471954  C 6.84166666666667 6.42116642480072  6.775 6.57589332660315  6.6875 6.74283551012682  C 6.82916666666667 6.93828001766672  7.01666666666667 7.17240625065724  7.25 7.44521420909836  C 7.27916666666667 7.49000357540959  7.29375 7.53072118114707  7.29375 7.5673670263108  C 7.29375 7.61622815319579  7.27916666666667 7.65490987864639  7.25 7.68341220266263  C 7.15416666666667 7.80556501987507  6.98229166666667 7.98777630555029  6.734375 8.23004605968831  C 6.48645833333334 8.47231581382632  6.32291666666667 8.59345069089532  6.24375 8.59345069089532  C 6.19791666666667 8.59345069089532  6.15416666666667 8.57919952888721  6.1125 8.55069720487097  L 5.39375 8.00100952741498  C 5.23958333333333 8.07837297831619  5.07916666666667 8.14148526720929  4.9125 8.19034639409427  C 4.86666666666667 8.63009653605906  4.81875 8.94565798052453  4.76875 9.1370307274907  C 4.73958333333333 9.23475298126064  4.67708333333333 9.28361410814562  4.58125 9.28361410814562  L 3.41875 9.28361410814562  C 3.37291666666667 9.28361410814562  3.33125 9.26834500599407  3.29375 9.23780680169096  C 3.25625 9.20726859738785  3.23541666666667 9.17164069236755  3.23125 9.13092308663007  L 3.0875 8.19645403495488  C 2.94583333333333 8.1557364292174  2.78958333333333 8.09262414032431  2.61875 8.00711716827561  L 1.88125 8.55069720487097  C 1.85208333333333 8.57919952888721  1.81041666666667 8.59345069089532  1.75625 8.59345069089532  C 1.71041666666667 8.59345069089532  1.66666666666667 8.57716364860033  1.625 8.54458956401035  C 1.025 8.00304540770185  0.725 7.677304561802  0.725 7.5673670263108  C 0.725 7.53072118114707  0.739583333333334 7.49203945569646  0.76875 7.45132184995898  C 0.810416666666667 7.39431720192651  0.895833333333333 7.28641554672219  1.025 7.12761688434601  C 1.15416666666667 6.96881822196984  1.25208333333333 6.84462952447052  1.31875 6.75505079184807  C 1.22291666666667 6.57589332660315  1.15 6.40895114307948  1.1 6.25422424127705  L 0.149999999999999 6.10764086062211  C 0.108333333333332 6.10356910004837  0.0729166666666675 6.08422823732307  0.0437500000000009 6.04961827244621  C 0.0145833333333323 6.01500830756935  0 5.97530864197531  0 5.93051927566408  L 0 4.80060571644899  C 0 4.75988811071151  0.0145833333333323 4.72018844511746  0.0437500000000009 4.68150671966686  C 0.0729166666666675 4.64282499421625  0.10625 4.62144825120407  0.143749999999999 4.61737649063032  L 1.1125 4.47079310997539  C 1.15833333333333 4.32828148989421  1.225 4.17355458809178  1.3125 4.00661240456811  C 1.17083333333333 3.8111678970282  0.983333333333333 3.57704166403768  0.75 3.30423370559657  C 0.720833333333333 3.25944433928534  0.706249999999999 3.21872673354786  0.706249999999999 3.18208088838413  C 0.706249999999999 3.13321976149915  0.720833333333333 3.09250215576167  0.75 3.05992807117168  C 0.841666666666668 2.93777525395924  1.0125 2.75658190842745  1.2625 2.51634803457631  C 1.5125 2.27611416072518  1.67708333333333 2.15599722379961  1.75625 2.15599722379961  C 1.80208333333333 2.15599722379961  1.84583333333334 2.17024838580773  1.8875 2.19875070982396  L 2.60625 2.74843838727995  C 2.74791666666667 2.67514669695249  2.90833333333333 2.60999852777252  3.0875 2.55299387974005  C 3.13333333333333 2.11324373777526  3.18125 1.79971817359665  3.23125 1.61241718720424  C 3.26041666666667 1.51469493343429  3.32291666666667 1.46583380654931  3.41875 1.46583380654931  L 4.58125 1.46583380654931  C 4.62708333333334 1.46583380654931  4.66875 1.48110290870087  4.70625 1.51164111300397  C 4.74375 1.54217931730708  4.76458333333333 1.57780722232738  4.76875 1.61852482806486  L 4.9125 2.55299387974005  C 5.05416666666667 2.59371148547753  5.21041666666667 2.65682377437062  5.38125 2.74233074641933  L 6.11875 2.19875070982396  C 6.15208333333333 2.17024838580773  6.19375 2.15599722379961  6.24375 2.15599722379961  C 6.28958333333333 2.15599722379961  6.33333333333333 2.1722842660946  6.375 2.20485835068459  C 6.975 2.74640250699307  7.275 3.07214335289293  7.275 3.18208088838413  C 7.275 3.21465497297411  7.26041666666667 3.25333669842471  7.23125 3.29812606473594  C 7.18125 3.36327423391591  7.09375 3.47321176940711  6.96875 3.62793867120954  C 6.84375 3.78266557301196  6.75 3.90481839022441  6.6875 3.99439712284687  C 6.78333333333334 4.18984163038678  6.85416666666667 4.35678381391045  6.9 4.49522367341788  L 7.85 4.63569941321219  C 7.89166666666667 4.64384293435968  7.92708333333333 4.66521967737186  7.95625 4.69982964224872  Z M 11.06875 7.88496435106316  C 11.6895833333333 7.94604075966938  12 8.00915304856248  12 8.07430121774244  L 12 8.92937093822955  C 12 8.99451910740951  11.6895833333333 9.0576313963026  11.06875 9.11870780490882  C 11.01875 9.22864534040002  10.95625 9.33451111531747  10.88125 9.43630512966118  C 11.09375 9.89641407449471  11.2 10.1773655540833  11.2 10.279159568427  C 11.2 10.295446610722  11.1916666666667 10.3096977727301  11.175 10.3219130544514  C 10.6666666666667 10.6110080551875  10.4083333333333 10.7555555555556  10.4 10.7555555555556  C 10.3666666666667 10.7555555555556  10.2708333333333 10.6598691820725  10.1125 10.4684964351063  C 9.95416666666667 10.2771236881401  9.84583333333333 10.1386838286327  9.7875 10.053176856584  C 9.70416666666667 10.0613203777315  9.64166666666667 10.0653921383053  9.6 10.0653921383053  C 9.55833333333333 10.0653921383053  9.49583333333334 10.0613203777315  9.4125 10.053176856584  C 9.35416666666667 10.1386838286327  9.24583333333334 10.2771236881401  9.0875 10.4684964351063  C 8.92916666666667 10.6598691820725  8.83333333333333 10.7555555555556  8.8 10.7555555555556  C 8.79166666666667 10.7555555555556  8.53333333333333 10.6110080551875  8.025 10.3219130544514  C 8.00833333333333 10.3096977727301  8 10.295446610722  8 10.279159568427  C 8 10.1773655540833  8.10625 9.89641407449471  8.31875 9.43630512966118  C 8.24375 9.33451111531747  8.18125 9.22864534040002  8.13125 9.11870780490882  C 7.51041666666667 9.0576313963026  7.2 8.99451910740951  7.2 8.92937093822955  L 7.2 8.07430121774244  C 7.2 8.00915304856248  7.51041666666667 7.94604075966938  8.13125 7.88496435106316  C 8.18541666666667 7.76688329442446  8.24791666666667 7.66101751950701  8.31875 7.5673670263108  C 8.10625 7.10725808147727  8 6.82630660188865  8 6.72451258754495  C 8 6.70822554524996  8.00833333333333 6.69397438324185  8.025 6.6817591015206  C 8.04166666666667 6.6736155803731  8.11458333333334 6.63289797463563  8.24375 6.55960628430816  C 8.37291666666667 6.48631459398069  8.49583333333333 6.41709466422697  8.6125 6.35194649504701  C 8.72916666666667 6.28679832586704  8.79166666666667 6.25422424127705  8.8 6.25422424127705  C 8.83333333333333 6.25422424127705  8.92916666666667 6.34889267461669  9.0875 6.53822954129598  C 9.24583333333334 6.72756640797526  9.35416666666667 6.86498832733926  9.4125 6.95049529938797  C 9.49583333333334 6.94235177824048  9.55833333333333 6.93828001766672  9.6 6.93828001766672  C 9.64166666666667 6.93828001766672  9.70416666666667 6.94235177824048  9.7875 6.95049529938797  C 10 6.66140029865186  10.1916666666667 6.43338170652196  10.3625 6.26643952299829  L 10.4 6.25422424127705  C 10.4166666666667 6.25422424127705  10.675 6.39673586135824  11.175 6.6817591015206  C 11.1916666666667 6.69397438324185  11.2 6.70822554524996  11.2 6.72451258754495  C 11.2 6.82630660188865  11.09375 7.10725808147727  10.88125 7.5673670263108  C 10.9520833333333 7.66101751950701  11.0145833333333 7.76688329442446  11.06875 7.88496435106316  Z M 11.06875 1.63074010978611  C 11.6895833333333 1.69181651839233  12 1.75492880728542  12 1.82007697646539  L 12 2.67514669695249  C 12 2.74029486613246  11.6895833333333 2.80340715502555  11.06875 2.86448356363177  C 11.01875 2.97442109912297  10.95625 3.08028687404042  10.88125 3.18208088838413  C 11.09375 3.64218983321766  11.2 3.92314131280628  11.2 4.02493532714998  C 11.2 4.04122236944497  11.1916666666667 4.05547353145309  11.175 4.06768881317433  C 10.6666666666667 4.35678381391045  10.4083333333333 4.5013313142785  10.4 4.5013313142785  C 10.3666666666667 4.5013313142785  10.2708333333333 4.40564494079542  10.1125 4.21427219382926  C 9.95416666666667 4.0228994468631  9.84583333333333 3.88445958735566  9.7875 3.79895261530696  C 9.70416666666667 3.80709613645445  9.64166666666667 3.8111678970282  9.6 3.8111678970282  C 9.55833333333333 3.8111678970282  9.49583333333334 3.80709613645445  9.4125 3.79895261530696  C 9.35416666666667 3.88445958735566  9.24583333333334 4.0228994468631  9.0875 4.21427219382926  C 8.92916666666667 4.40564494079542  8.83333333333333 4.5013313142785  8.8 4.5013313142785  C 8.79166666666667 4.5013313142785  8.53333333333333 4.35678381391045  8.025 4.06768881317433  C 8.00833333333333 4.05547353145309  8 4.04122236944497  8 4.02493532714998  C 8 3.92314131280628  8.10625 3.64218983321766  8.31875 3.18208088838413  C 8.24375 3.08028687404042  8.18125 2.97442109912297  8.13125 2.86448356363177  C 7.51041666666667 2.80340715502555  7.2 2.74029486613246  7.2 2.67514669695249  L 7.2 1.82007697646539  C 7.2 1.75492880728542  7.51041666666667 1.69181651839233  8.13125 1.63074010978611  C 8.18541666666667 1.51265905314741  8.24791666666667 1.40679327822996  8.31875 1.31314278503376  C 8.10625 0.853033840200221  8 0.572082360611604  8 0.470288346267901  C 8 0.454001303972905  8.00833333333333 0.43975014196479  8.025 0.427534860243547  C 8.04166666666667 0.419391339096049  8.11458333333334 0.378673733358575  8.24375 0.30538204303111  C 8.37291666666667 0.232090352703638  8.49583333333333 0.162870422949925  8.6125 0.0977222537699508  C 8.72916666666667 0.0325740845899836  8.79166666666667 0  8.8 0  C 8.83333333333333 0  8.92916666666667 0.0946684333396382  9.0875 0.284005300018929  C 9.24583333333334 0.473342166698213  9.35416666666667 0.610764086062213  9.4125 0.696271058110928  C 9.49583333333334 0.68812753696343  9.55833333333333 0.684055776389678  9.6 0.684055776389678  C 9.64166666666667 0.684055776389678  9.70416666666667 0.68812753696343  9.7875 0.696271058110928  C 10 0.407176057374806  10.1916666666667 0.179157465244913  10.3625 0.0122152817212429  L 10.4 0  C 10.4166666666667 0  10.675 0.142511620081177  11.175 0.427534860243547  C 11.1916666666667 0.43975014196479  11.2 0.454001303972905  11.2 0.470288346267901  C 11.2 0.572082360611604  11.09375 0.853033840200221  10.88125 1.31314278503376  C 10.9520833333333 1.40679327822996  11.0145833333333 1.51265905314741  11.06875 1.63074010978611  Z " fill-rule="nonzero" fill="#aaaaaa" stroke="none" transform="matrix(1 0 0 1 6 219 )" />
  </g>
</svg>