<?xml version="1.0" encoding="utf-8"?>
<svg version="1.1" xmlns:xlink="http://www.w3.org/1999/xlink" width="15px" height="17px" xmlns="http://www.w3.org/2000/svg">
  <g transform="matrix(1 0 0 1 -1370 -20 )">
    <path d="M 14.1010587177578 5.52409188034188  C 14.6209878265541 6.59627849002849  14.8809523809523 7.73839031339031  14.8809523809523 8.95042735042735  C 14.8809523809523 9.98931623931624  14.683960606812 10.9815883190883  14.2899770585316 11.9272435897436  C 13.8959935102513 12.8728988603989  13.3663762814154 13.688693019943  12.7011253720238 14.3746260683761  C 12.0358744626323 15.0605591168091  11.2446779927249 15.6066417378917  10.3275359623017 16.0128739316239  C 9.41039393187829 16.4191061253561  8.44804067460293 16.6222222222222  7.44047619047616 16.6222222222222  C 6.43291170634921 16.6222222222222  5.47055844907403 16.4191061253561  4.55341641865079 16.0128739316239  C 3.63627438822738 15.6066417378917  2.84507791832006 15.0605591168091  2.17982700892848 14.3746260683761  C 1.51457609953689 13.688693019943  0.984958870700977 12.8728988603989  0.59097532242055 11.9272435897436  C 0.196991774140303 10.9815883190883  0 9.98931623931624  0 8.95042735042735  C 0 7.73839031339031  0.25996455439817 6.59627849002849  0.779893663194511 5.52409188034188  C 1.29982277199085 4.45190527065527  2.03127583498677 3.55286680911681  2.97425285218244 2.8269764957265  C 3.25197895998671 2.61387108262108  3.56038411458329 2.53062678062678  3.8994683159722 2.57724358974359  C 4.2385525173611 2.6238603988604  4.50820519179902 2.790349002849  4.70842633928561 3.0767094017094  C 4.91510623346549 3.35641025641026  4.9942258804564 3.67107371794872  4.94578528025781 4.02069978632479  C 4.89734468005957 4.37032585470086  4.7374906994047 4.65169159544159  4.46622333829354 4.86479700854701  C 3.83326616236768 5.35760327635327  3.34401610036384 5.96029202279202  2.99847315228183 6.67286324786325  C 2.65293020419982 7.38543447293447  2.48015873015872 8.14462250712251  2.48015873015872 8.95042735042735  C 2.48015873015872 9.64301994301994  2.61094835069451 10.3039797008547  2.87252759176591 10.9333066239316  C 3.13410683283732 11.5626335470086  3.48772321428567 12.1070512820513  3.93337673611116 12.5665598290598  C 4.37903025793646 13.0260683760684  4.90703280009933 13.3906784188034  5.51738436259921 13.660389957265  C 6.12773592509927 13.9301014957265  6.76876653439146 14.0649572649573  7.44047619047616 14.0649572649573  C 8.11218584656067 14.0649572649573  8.75321645585305 13.9301014957265  9.36356801835293 13.660389957265  C 9.97391958085299 13.3906784188034  10.501922123016 13.0260683760684  10.9475756448413 12.5665598290598  C 11.3932291666666 12.1070512820513  11.746845548115 11.5626335470086  12.0084247891864 10.9333066239316  C 12.2700040302578 10.3039797008547  12.4007936507936 9.64301994301994  12.4007936507936 8.95042735042735  C 12.4007936507936 8.14462250712251  12.2280221767525 7.38543447293447  11.8824792286707 6.67286324786325  C 11.5369362805887 5.96029202279202  11.0476862185846 5.35760327635327  10.4147290426588 4.86479700854701  C 10.1434616815476 4.65169159544159  9.98360770089275 4.37032585470086  9.93516710069451 4.02069978632479  C 9.88672650049592 3.67107371794872  9.96584614748665 3.35641025641026  10.1725260416667 3.0767094017094  C 10.3727471891535 2.790349002849  10.6440145502646 2.6238603988604  10.986328125 2.57724358974359  C 11.3286416997354 2.53062678062678  11.6354321676587 2.61387108262108  11.9066995287697 2.8269764957265  C 12.8496765459656 3.55286680911681  13.5811296089616 4.45190527065527  14.1010587177578 5.52409188034188  Z M 8.31240699404762 0.379594017094017  C 8.55783936838616 0.632656695156694  8.68055555555543 0.93233618233618  8.68055555555543 1.27863247863248  L 8.68055555555543 7.67179487179487  C 8.68055555555543 8.01809116809117  8.55783936838616 8.31777065527066  8.31240699404762 8.57083333333333  C 8.0669746197089 8.82389601139601  7.77633101851842 8.95042735042735  7.44047619047616 8.95042735042735  C 7.1046213624339 8.95042735042735  6.81397776124341 8.82389601139601  6.5685453869047 8.57083333333333  C 6.32311301256598 8.31777065527066  6.20039682539707 8.01809116809117  6.20039682539707 7.67179487179487  L 6.20039682539707 1.27863247863248  C 6.20039682539707 0.93233618233618  6.32311301256598 0.632656695156694  6.5685453869047 0.379594017094017  C 6.81397776124341 0.12653133903134  7.1046213624339 0  7.44047619047616 0  C 7.77633101851842 0  8.0669746197089 0.12653133903134  8.31240699404762 0.379594017094017  Z " fill-rule="nonzero" fill="#ffffff" stroke="none" transform="matrix(1 0 0 1 1370 20 )" />
  </g>
</svg>