<?xml version="1.0" encoding="utf-8"?>
<svg version="1.1" xmlns:xlink="http://www.w3.org/1999/xlink" width="12px" height="17px" xmlns="http://www.w3.org/2000/svg">
  <g transform="matrix(1 0 0 1 -1128 -20 )">
    <path d="M 7.74486486486489 12.8260887096774  C 7.8486486486488 12.9316532258064  7.90054054054053 13.054811827957  7.90054054054053 13.195564516129  L 7.90054054054053 16.3625  C 7.90054054054053 16.503252688172  7.8486486486488 16.6264112903226  7.74486486486489 16.7319758064516  C 7.64108108108098 16.8375403225806  7.51999999999998 16.8903225806452  7.38162162162143 16.8903225806452  L 4.26810810810798 16.8903225806452  C 4.12972972972989 16.8903225806452  4.00864864864866 16.8375403225806  3.90486486486498 16.7319758064516  C 3.80108108108107 16.6264112903226  3.74918918918911 16.503252688172  3.74918918918911 16.3625  L 3.74918918918911 13.195564516129  C 3.74918918918911 13.054811827957  3.80108108108107 12.9316532258064  3.90486486486498 12.8260887096774  C 4.00864864864866 12.7205241935484  4.12972972972989 12.6677419354839  4.26810810810798 12.6677419354839  L 7.38162162162143 12.6677419354839  C 7.51999999999998 12.6677419354839  7.64108108108098 12.7205241935484  7.74486486486489 12.8260887096774  Z M 11.468108108108 3.18672883064516  C 11.8227027027028 3.85090557795699  12 4.54807123655914  12 5.27822580645162  C 12 5.75326612903226  11.9329729729732 6.19751680107527  11.7989189189188 6.61097782258064  C 11.6648648648647 7.02443884408602  11.5135135135135 7.36092573924731  11.3448648648648 7.62043850806452  C 11.1762162162163 7.87995127688172  10.9383783783783 8.14166330645161  10.6313513513514 8.40557459677419  C 10.3243243243244 8.66948588709678  10.0756756756755 8.86082157258064  9.88540540540544 8.9795816532258  C 9.69513513513516 9.09834173387097  9.4313513513514 9.25448924731183  9.09405405405414 9.44802419354838  C 8.73945945945934 9.6503561827957  8.44324324324339 9.93626008064516  8.20540540540514 10.3057358870968  C 7.96756756756758 10.6752116935484  7.8486486486488 10.9699126344086  7.8486486486488 11.1898387096774  C 7.8486486486488 11.3393884408602  7.79675675675685 11.4823403897849  7.69297297297317 11.6186945564516  C 7.58918918918926 11.7550487231183  7.46810810810825 11.8232258064516  7.32972972972971 11.8232258064516  L 4.21621621621625 11.8232258064516  C 4.08648648648659 11.8232258064516  3.97621621621624 11.7418531586022  3.88540540540544 11.5791078629032  C 3.79459459459486 11.4163625672043  3.74918918918911 11.2514180107527  3.74918918918911 11.0842741935484  L 3.74918918918911 10.4904737903226  C 3.74918918918911 9.76031922043011  4.03027027027019 9.07195060483871  4.59243243243236 8.42536794354838  C 5.15459459459453 7.77878528225806  5.77297297297309 7.30154569892473  6.4475675675676 6.99364919354839  C 6.95783783783781 6.75612903225806  7.32108108108127 6.50981182795699  7.5372972972973 6.25469758064516  C 7.75351351351333 5.99958333333333  7.86162162162145 5.66529569892473  7.86162162162145 5.25183467741935  C 7.86162162162145 4.88235887096774  7.66054054054075 4.5568682795699  7.25837837837844 4.27536290322581  C 6.85621621621613 3.99385752688172  6.39135135135143 3.85310483870968  5.8637837837839 3.85310483870968  C 5.30162162162173 3.85310483870968  4.83459459459459 3.98066196236559  4.4627027027027 4.23577620967742  C 4.16000000000008 4.45570228494623  3.69729729729715 4.96153225806452  3.0745945945946 5.75326612903226  C 2.96216216216226 5.8940188172043  2.82810810810815 5.96439516129032  2.67243243243252 5.96439516129032  C 2.5686486486486 5.96439516129032  2.46054054054048 5.92920698924731  2.34810810810814 5.85883064516129  L 0.220540540540696 4.20938508064516  C 0.108108108108127 4.12141465053763  0.0410810810810744 4.01145161290323  0.0194594594595401 3.87949596774194  C -0.00216216216222165 3.74754032258065  0.0216216216215344 3.62438172043011  0.0908108108108081 3.51002016129032  C 1.47459459459469 1.17000672043011  3.4810810810809 0  6.11027027027035 0  C 6.80216216216218 0  7.49837837837845 0.136354166666667  8.19891891891893 0.409062499999997  C 8.89945945945965 0.681770833333331  9.53081081081109 1.04684811827957  10.0929729729733 1.50429435483871  C 10.6551351351354 1.96174059139785  11.1135135135137 2.52255208333333  11.468108108108 3.18672883064516  Z " fill-rule="nonzero" fill="#ffffff" stroke="none" transform="matrix(1 0 0 1 1128 20 )" />
  </g>
</svg>