<?xml version="1.0" encoding="utf-8"?>
<svg version="1.1" xmlns:xlink="http://www.w3.org/1999/xlink" width="112px" height="35px" xmlns="http://www.w3.org/2000/svg">
  <defs>
    <filter x="114px" y="293px" width="112px" height="35px" filterUnits="userSpaceOnUse" id="filter48">
      <feOffset dx="3" dy="3" in="SourceAlpha" result="shadowOffsetInner" />
      <feGaussianBlur stdDeviation="2.5" in="shadowOffsetInner" result="shadowGaussian" />
      <feComposite in2="shadowGaussian" operator="atop" in="SourceAlpha" result="shadowComposite" />
      <feColorMatrix type="matrix" values="0 0 0 0 0.8  0 0 0 0 0.8  0 0 0 0 0.8  0 0 0 0.176470588235294 0  " in="shadowComposite" />
    </filter>
    <g id="widget49">
      <path d="M 116.5 303  A 7.5 7.5 0 0 1 124 295.5 L 217.5 295.5  L 217.5 319.5  L 124 319.5  A 7.5 7.5 0 0 1 116.5 312 L 116.5 303  Z " fill-rule="nonzero" fill="#ffffff" stroke="none" />
      <path d="M 116.5 303  A 7.5 7.5 0 0 1 124 295.5 L 217.5 295.5  L 217.5 319.5  L 124 319.5  A 7.5 7.5 0 0 1 116.5 312 L 116.5 303  Z " stroke-width="1" stroke="#cccccc" fill="none" />
    </g>
  </defs>
  <g transform="matrix(1 0 0 1 -114 -293 )">
    <use xlink:href="#widget49" filter="url(#filter48)" />
    <use xlink:href="#widget49" />
  </g>
</svg>