<?xml version="1.0" encoding="utf-8"?>
<svg version="1.1" xmlns:xlink="http://www.w3.org/1999/xlink" width="112px" height="35px" xmlns="http://www.w3.org/2000/svg">
  <defs>
    <filter x="316px" y="293px" width="112px" height="35px" filterUnits="userSpaceOnUse" id="filter52">
      <feOffset dx="3" dy="3" in="SourceAlpha" result="shadowOffsetInner" />
      <feGaussianBlur stdDeviation="2.5" in="shadowOffsetInner" result="shadowGaussian" />
      <feComposite in2="shadowGaussian" operator="atop" in="SourceAlpha" result="shadowComposite" />
      <feColorMatrix type="matrix" values="0 0 0 0 0.8  0 0 0 0 0.8  0 0 0 0 0.8  0 0 0 0.176470588235294 0  " in="shadowComposite" />
    </filter>
    <g id="widget53">
      <path d="M 318.5 295.5  L 412 295.5  A 7.5 7.5 0 0 1 419.5 303 L 419.5 312  A 7.5 7.5 0 0 1 412 319.5 L 318.5 319.5  L 318.5 295.5  Z " fill-rule="nonzero" fill="#ffffff" stroke="none" />
      <path d="M 318.5 295.5  L 412 295.5  A 7.5 7.5 0 0 1 419.5 303 L 419.5 312  A 7.5 7.5 0 0 1 412 319.5 L 318.5 319.5  L 318.5 295.5  Z " stroke-width="1" stroke="#cccccc" fill="none" />
    </g>
  </defs>
  <g transform="matrix(1 0 0 1 -316 -293 )">
    <use xlink:href="#widget53" filter="url(#filter52)" />
    <use xlink:href="#widget53" />
  </g>
</svg>