<?xml version="1.0" encoding="utf-8"?>
<svg version="1.1" xmlns:xlink="http://www.w3.org/1999/xlink" width="305px" height="25px" viewBox="116 130  305 25" xmlns="http://www.w3.org/2000/svg">
  <path d="M 117 133  A 2 2 0 0 1 119 131 L 418 131  A 2 2 0 0 1 420 133 L 420 152  A 2 2 0 0 1 418 154 L 119 154  A 2 2 0 0 1 117 152 L 117 133  Z " fill-rule="nonzero" fill="#f0f0f0" stroke="none" />
  <path d="M 116.5 133  A 2.5 2.5 0 0 1 119 130.5 L 418 130.5  A 2.5 2.5 0 0 1 420.5 133 L 420.5 152  A 2.5 2.5 0 0 1 418 154.5 L 119 154.5  A 2.5 2.5 0 0 1 116.5 152 L 116.5 133  Z " stroke-width="1" stroke="#aaaaaa" fill="none" stroke-opacity="0.996078431372549" />
</svg>