<?xml version="1.0" encoding="utf-8"?>
<svg version="1.1" xmlns:xlink="http://www.w3.org/1999/xlink" width="26px" height="21px" xmlns="http://www.w3.org/2000/svg">
  <g transform="matrix(1 0 0 1 -1309 -19 )">
    <path d="M 24.1380208333333 15.6201171875  C 24.2237847222222 15.5335286458333  24.2666666666667 15.4309895833333  24 15.3125  L 24 2.1875  C 24.2666666666667 2.06901041666666  24.2237847222222 1.96647135416666  24.1380208333333 1.8798828125  C 24.0522569444444 1.79329427083333  23.9506944444444 1.75  23.8333333333333 2  L 2.16666666666667 2  C 2.04930555555556 1.75  1.94774305555556 1.79329427083333  1.86197916666667 1.8798828125  C 1.77621527777778 1.96647135416666  1.73333333333333 2.06901041666666  2 2.1875  L 2 15.3125  C 1.73333333333333 15.4309895833333  1.77621527777778 15.5335286458333  1.86197916666667 15.6201171875  C 1.94774305555556 15.7067057291667  2.04930555555556 15.75  2.16666666666667 15.75  L 23.8333333333333 15.75  C 23.9506944444444 15.75  24.0522569444444 15.7067057291667  24.1380208333333 15.6201171875  Z M 25.3635416666667 0.642578125000001  C 25.7878472222222 1.07096354166667  26 1.5859375  26 2.1875  L 26 15.3125  C 26 15.9140625  25.7878472222222 16.4290364583333  25.3635416666667 16.857421875  C 24.9392361111111 17.2858072916667  24.4291666666667 17.5  23.8333333333333 17.5  L 13.8666666666667 17.5  L 13.8666666666667 19.25  L 18.6333333333333 19.25  C 18.7597222222222 19.25  18.8635416666667 19.291015625  18.9447916666667 19.373046875  C 19.0260416666667 19.455078125  19.0666666666667 19.5598958333333  19.0666666666667 19.6875  L 19.0666666666667 20.5625  C 19.0666666666667 20.6901041666667  19.0260416666667 20.794921875  18.9447916666667 20.876953125  C 18.8635416666667 20.958984375  18.7597222222222 21  18.6333333333333 21  L 7.36666666666667 21  C 7.24027777777778 21  7.13645833333333 20.958984375  7.05520833333333 20.876953125  C 6.97395833333333 20.794921875  6.93333333333333 20.6901041666667  6.93333333333333 20.5625  L 6.93333333333333 19.6875  C 6.93333333333333 19.5598958333333  6.97395833333333 19.455078125  7.05520833333333 19.373046875  C 7.13645833333333 19.291015625  7.24027777777778 19.25  7.36666666666667 19.25  L 12.1333333333333 19.25  L 12.1333333333333 17.5  L 2.16666666666667 17.5  C 1.57083333333333 17.5  1.06076388888889 17.2858072916667  0.636458333333333 16.857421875  C 0.212152777777778 16.4290364583333  0 15.9140625  0 15.3125  L 0 2.1875  C 0 1.5859375  0.212152777777778 1.07096354166667  0.636458333333333 0.642578125000001  C 1.06076388888889 0.214192708333331  1.57083333333333 0  2.16666666666667 0  L 23.8333333333333 0  C 24.4291666666667 0  24.9392361111111 0.214192708333331  25.3635416666667 0.642578125000001  Z " fill-rule="nonzero" fill="#ffffff" stroke="none" transform="matrix(1 0 0 1 1309 19 )" />
  </g>
</svg>