<?xml version="1.0" encoding="utf-8"?>
<svg version="1.1" xmlns:xlink="http://www.w3.org/1999/xlink" width="33px" height="33px" xmlns="http://www.w3.org/2000/svg">
  <defs>
    <mask fill="white" id="clip33">
      <path d="M 15 42  C 13.335 42  12 40.665  12 39  L 12 12  C 12 10.335  13.335 9  15 9  L 42 9  C 43.665 9  45 10.335  45 12  L 45 39  C 45 40.665  43.665 42  42 42  " fill-rule="evenodd" />
    </mask>
  </defs>
  <g transform="matrix(1 0 0 1 -12 -9 )">
    <path d="M 12 9  L 45 9  L 45 42  L 12 42  L 12 9  " fill-rule="nonzero" fill="#cccccc" stroke="none" mask="url(#clip33)" />
    <path d="M 14 11  L 43 11  L 43 40  L 14 40  L 14 11  " fill-rule="nonzero" fill="#ffffff" stroke="none" mask="url(#clip33)" />
    <path d="M 31.635 18.9  C 30.249 18.9  29.16 17.811  29.16 16.425  C 29.16 15.039  30.249 13.95  31.635 13.95  C 33.021 13.95  34.11 15.039  34.11 16.425  C 34.11 17.811  33.021 18.9  31.635 18.9  " fill-rule="nonzero" fill="#cccccc" stroke="none" mask="url(#clip33)" />
    <path d="M 15 39  L 15 24.15  L 21.75 17.4  L 31.2 22.8  L 36.6 21.45  L 42 22.8  L 42 39  L 15 39  " fill-rule="nonzero" fill="#169bd5" stroke="none" mask="url(#clip33)" />
  </g>
</svg>