<?xml version="1.0" encoding="utf-8"?>
<svg version="1.1" xmlns:xlink="http://www.w3.org/1999/xlink" width="1256px" height="150px" xmlns="http://www.w3.org/2000/svg">
  <defs>
    <filter x="150px" y="80px" width="1256px" height="150px" filterUnits="userSpaceOnUse" id="filter36">
      <feOffset dx="0" dy="0" in="SourceAlpha" result="shadowOffsetInner" />
      <feGaussianBlur stdDeviation="5" in="shadowOffsetInner" result="shadowGaussian" />
      <feComposite in2="shadowGaussian" operator="atop" in="SourceAlpha" result="shadowComposite" />
      <feColorMatrix type="matrix" values="0 0 0 0 0.843137254901961  0 0 0 0 0.843137254901961  0 0 0 0 0.843137254901961  0 0 0 0.968627450980392 0  " in="shadowComposite" />
    </filter>
    <g id="widget37">
      <path d="M 162 92  L 1394 92  L 1394 218  L 162 218  L 162 92  Z " fill-rule="nonzero" fill="#ffffff" stroke="none" />
      <path d="M 161 92  A 1 1 0 0 1 162 91 L 1394 91  A 1 1 0 0 1 1395 92 L 1395 218  A 1 1 0 0 1 1394 219 L 162 219  A 1 1 0 0 1 161 218 L 161 92  Z " stroke-width="2" stroke="#d7d7d7" fill="none" stroke-opacity="0.458823529411765" />
    </g>
  </defs>
  <g transform="matrix(1 0 0 1 -150 -80 )">
    <use xlink:href="#widget37" filter="url(#filter36)" />
    <use xlink:href="#widget37" />
  </g>
</svg>