<?xml version="1.0" encoding="utf-8"?>
<svg version="1.1" xmlns:xlink="http://www.w3.org/1999/xlink" width="1256px" height="160px" xmlns="http://www.w3.org/2000/svg">
  <defs>
    <filter x="150px" y="220px" width="1256px" height="160px" filterUnits="userSpaceOnUse" id="filter38">
      <feOffset dx="0" dy="0" in="SourceAlpha" result="shadowOffsetInner" />
      <feGaussianBlur stdDeviation="5" in="shadowOffsetInner" result="shadowGaussian" />
      <feComposite in2="shadowGaussian" operator="atop" in="SourceAlpha" result="shadowComposite" />
      <feColorMatrix type="matrix" values="0 0 0 0 0.843137254901961  0 0 0 0 0.843137254901961  0 0 0 0 0.843137254901961  0 0 0 0.968627450980392 0  " in="shadowComposite" />
    </filter>
    <g id="widget39">
      <path d="M 162 232  L 1394 232  L 1394 368  L 162 368  L 162 232  Z " fill-rule="nonzero" fill="#ffffff" stroke="none" />
      <path d="M 161 232  A 1 1 0 0 1 162 231 L 1394 231  A 1 1 0 0 1 1395 232 L 1395 368  A 1 1 0 0 1 1394 369 L 162 369  A 1 1 0 0 1 161 368 L 161 232  Z " stroke-width="2" stroke="#d7d7d7" fill="none" stroke-opacity="0.458823529411765" />
    </g>
  </defs>
  <g transform="matrix(1 0 0 1 -150 -220 )">
    <use xlink:href="#widget39" filter="url(#filter38)" />
    <use xlink:href="#widget39" />
  </g>
</svg>