<?xml version="1.0" encoding="utf-8"?>
<svg version="1.1" xmlns:xlink="http://www.w3.org/1999/xlink" width="13px" height="13px" xmlns="http://www.w3.org/2000/svg">
  <g transform="matrix(1 0 0 1 -160 -63 )">
    <path d="M 12.8391927083333 10.59296875  C 12.9463975694444 10.7216145833333  13 10.8739583333333  13 11.05  L 13 12.35  C 13 12.5260416666667  12.9463975694444 12.6783854166667  12.8391927083333 12.80703125  C 12.7319878472222 12.9356770833333  12.6050347222222 13  12.4583333333333 13  L 0.541666666666667 13  C 0.394965277777778 13  0.268012152777778 12.9356770833333  0.160807291666667 12.80703125  C 0.0536024305555556 12.6783854166667  0 12.5260416666667  0 12.35  L 0 11.05  C 0 10.8739583333333  0.0536024305555556 10.7216145833333  0.160807291666667 10.59296875  C 0.268012152777778 10.4643229166667  0.394965277777778 10.4  0.541666666666667 10.4  L 12.4583333333333 10.4  C 12.6050347222222 10.4  12.7319878472222 10.4643229166667  12.8391927083333 10.59296875  Z M 12.8391927083333 5.39296875  C 12.9463975694444 5.52161458333333  13 5.67395833333333  13 5.85  L 13 7.15  C 13 7.32604166666667  12.9463975694444 7.47838541666667  12.8391927083333 7.60703125  C 12.7319878472222 7.73567708333333  12.6050347222222 7.8  12.4583333333333 7.8  L 0.541666666666667 7.8  C 0.394965277777778 7.8  0.268012152777778 7.73567708333333  0.160807291666667 7.60703125  C 0.0536024305555556 7.47838541666667  0 7.32604166666667  0 7.15  L 0 5.85  C 0 5.67395833333333  0.0536024305555556 5.52161458333333  0.160807291666667 5.39296875  C 0.268012152777778 5.26432291666667  0.394965277777778 5.2  0.541666666666667 5.2  L 12.4583333333333 5.2  C 12.6050347222222 5.2  12.7319878472222 5.26432291666667  12.8391927083333 5.39296875  Z M 12.8391927083333 0.192968750000001  C 12.9463975694444 0.321614583333332  13 0.473958333333332  13 0.650000000000001  L 13 1.95  C 13 2.12604166666667  12.9463975694444 2.27838541666667  12.8391927083333 2.40703125  C 12.7319878472222 2.53567708333333  12.6050347222222 2.6  12.4583333333333 2.6  L 0.541666666666667 2.6  C 0.394965277777778 2.6  0.268012152777778 2.53567708333333  0.160807291666667 2.40703125  C 0.0536024305555556 2.27838541666667  0 2.12604166666667  0 1.95  L 0 0.650000000000001  C 0 0.473958333333332  0.0536024305555556 0.321614583333332  0.160807291666667 0.192968750000001  C 0.268012152777778 0.0643229166666659  0.394965277777778 0  0.541666666666667 0  L 12.4583333333333 0  C 12.6050347222222 0  12.7319878472222 0.0643229166666659  12.8391927083333 0.192968750000001  Z " fill-rule="nonzero" fill="#333333" stroke="none" transform="matrix(1 0 0 1 160 63 )" />
  </g>
</svg>