<?xml version="1.0" encoding="utf-8"?>
<svg version="1.1" xmlns:xlink="http://www.w3.org/1999/xlink" width="162px" height="985px" xmlns="http://www.w3.org/2000/svg">
  <defs>
    <filter x="-2px" y="48px" width="162px" height="985px" filterUnits="userSpaceOnUse" id="filter42">
      <feOffset dx="3" dy="3" in="SourceAlpha" result="shadowOffsetInner" />
      <feGaussianBlur stdDeviation="2.5" in="shadowOffsetInner" result="shadowGaussian" />
      <feComposite in2="shadowGaussian" operator="atop" in="SourceAlpha" result="shadowComposite" />
      <feColorMatrix type="matrix" values="0 0 0 0 0.8  0 0 0 0 0.8  0 0 0 0 0.8  0 0 0 0.176470588235294 0  " in="shadowComposite" />
    </filter>
    <g id="widget43">
      <path d="M 1 53  A 2 2 0 0 1 3 51 L 149 51  A 2 2 0 0 1 151 53 L 151 1022  A 2 2 0 0 1 149 1024 L 3 1024  A 2 2 0 0 1 1 1022 L 1 53  Z " fill-rule="nonzero" fill="#ffffff" stroke="none" />
      <path d="M 0.5 53  A 2.5 2.5 0 0 1 3 50.5 L 149 50.5  A 2.5 2.5 0 0 1 151.5 53 L 151.5 1022  A 2.5 2.5 0 0 1 149 1024.5 L 3 1024.5  A 2.5 2.5 0 0 1 0.5 1022 L 0.5 53  Z " stroke-width="1" stroke="#cccccc" fill="none" stroke-opacity="0.458823529411765" />
    </g>
  </defs>
  <g transform="matrix(1 0 0 1 2 -48 )">
    <use xlink:href="#widget43" filter="url(#filter42)" />
    <use xlink:href="#widget43" />
  </g>
</svg>