<?xml version="1.0" encoding="utf-8"?>
<svg version="1.1" xmlns:xlink="http://www.w3.org/1999/xlink" width="129px" height="42px" xmlns="http://www.w3.org/2000/svg">
  <g transform="matrix(1 0 0 1 -292 -131 )">
    <path d="M 292.5 167.685417625182  C 292.5 167.685417625182  292.5 145.020061728395  292.5 145.020061728395  C 292.5 142.534780354156  294.514718625761 140.520061728395  297 140.520061728395  C 297 140.520061728395  393.621194395189 140.520061728395  393.621194395189 140.520061728395  C 393.621194395189 140.520061728395  404.303873757221 131.888832272196  404.303873757221 131.888832272196  C 404.303873757221 131.888832272196  413.242442203003 140.520061728395  413.242442203003 140.520061728395  C 413.242442203003 140.520061728395  416 140.520061728395  416 140.520061728395  C 418.485281374239 140.520061728395  420.5 142.534780354156  420.5 145.020061728395  C 420.5 145.020061728395  420.5 167.685417625182  420.5 167.685417625182  C 420.5 170.170698999421  418.485281374239 172.185417625182  416 172.185417625182  C 416 172.185417625182  297 172.185417625182  297 172.185417625182  C 294.514718625761 172.185417625182  292.5 170.170698999421  292.5 167.685417625182  Z " fill-rule="nonzero" fill="#ffffff" stroke="none" />
    <path d="M 292 167.685417625182  C 292 167.685417625182  292 145.020061728395  292 145.020061728395  C 292 142.258637979241  294.238576250846 140.020061728395  297 140.020061728395  C 297 140.020061728395  393.444444444444 140.020061728395  393.444444444444 140.020061728395  C 393.444444444444 140.020061728395  404.333333333333 131.222222222222  404.333333333333 131.222222222222  C 404.333333333333 131.222222222222  413.444444444444 140.020061728395  413.444444444444 140.020061728395  C 413.444444444444 140.020061728395  416 140.020061728395  416 140.020061728395  C 418.761423749154 140.020061728395  421 142.258637979241  421 145.020061728395  C 421 145.020061728395  421 167.685417625182  421 167.685417625182  C 421 170.446841374336  418.761423749154 172.685417625182  416 172.685417625182  C 416 172.685417625182  297 172.685417625182  297 172.685417625182  C 294.238576250846 172.685417625182  292 170.446841374336  292 167.685417625182  Z M 293 167.685417625182  C 293 169.894556624505  294.790861000677 171.685417625182  297 171.685417625182  C 297 171.685417625182  416 171.685417625182  416 171.685417625182  C 418.209138999323 171.685417625182  420 169.894556624505  420 167.685417625182  C 420 167.685417625182  420 145.020061728395  420 145.020061728395  C 420 142.810922729072  418.209138999323 141.020061728395  416 141.020061728395  C 416 141.020061728395  413.04043996156 141.020061728395  413.04043996156 141.020061728395  C 413.04043996156 141.020061728395  404.274414181108 132.555442322169  404.274414181108 132.555442322169  C 404.274414181108 132.555442322169  393.797944345933 141.020061728395  393.797944345933 141.020061728395  C 393.797944345933 141.020061728395  297 141.020061728395  297 141.020061728395  C 294.790861000677 141.020061728395  293 142.810922729072  293 145.020061728395  C 293 145.020061728395  293 167.685417625182  293 167.685417625182  Z " fill-rule="nonzero" fill="#d7d7d7" stroke="none" />
  </g>
</svg>