<?xml version="1.0" encoding="utf-8"?>
<svg version="1.1" xmlns:xlink="http://www.w3.org/1999/xlink" width="12px" height="12px" viewBox="330 165  12 12" xmlns="http://www.w3.org/2000/svg">
  <path d="M 330.5 168  A 2.5 2.5 0 0 1 333 165.5 L 339 165.5  A 2.5 2.5 0 0 1 341.5 168 L 341.5 174  A 2.5 2.5 0 0 1 339 176.5 L 333 176.5  A 2.5 2.5 0 0 1 330.5 174 L 330.5 168  Z " fill-rule="nonzero" fill="#ffffff" stroke="none" />
  <path d="M 330.5 168  A 2.5 2.5 0 0 1 333 165.5 L 339 165.5  A 2.5 2.5 0 0 1 341.5 168 L 341.5 174  A 2.5 2.5 0 0 1 339 176.5 L 333 176.5  A 2.5 2.5 0 0 1 330.5 174 L 330.5 168  Z " stroke-width="1" stroke="#797979" fill="none" />
</svg>