<?xml version="1.0" encoding="utf-8"?>
<svg version="1.1" xmlns:xlink="http://www.w3.org/1999/xlink" width="12px" height="12px" viewBox="330 240  12 12" xmlns="http://www.w3.org/2000/svg">
  <path d="M 330.5 243  A 2.5 2.5 0 0 1 333 240.5 L 339 240.5  A 2.5 2.5 0 0 1 341.5 243 L 341.5 249  A 2.5 2.5 0 0 1 339 251.5 L 333 251.5  A 2.5 2.5 0 0 1 330.5 249 L 330.5 243  Z " fill-rule="nonzero" fill="#f0f0f0" stroke="none" />
  <path d="M 330.5 243  A 2.5 2.5 0 0 1 333 240.5 L 339 240.5  A 2.5 2.5 0 0 1 341.5 243 L 341.5 249  A 2.5 2.5 0 0 1 339 251.5 L 333 251.5  A 2.5 2.5 0 0 1 330.5 249 L 330.5 243  Z " stroke-width="1" stroke="#797979" fill="none" />
</svg>