<?xml version="1.0" encoding="utf-8"?>
<svg version="1.1" xmlns:xlink="http://www.w3.org/1999/xlink" width="777px" height="382px" xmlns="http://www.w3.org/2000/svg">
  <defs>
    <filter x="-2px" y="-2px" width="777px" height="382px" filterUnits="userSpaceOnUse" id="filter81">
      <feOffset dx="6" dy="6" in="SourceAlpha" result="shadowOffsetInner" />
      <feGaussianBlur stdDeviation="4" in="shadowOffsetInner" result="shadowGaussian" />
      <feComposite in2="shadowGaussian" operator="atop" in="SourceAlpha" result="shadowComposite" />
      <feColorMatrix type="matrix" values="0 0 0 0 0.8  0 0 0 0 0.8  0 0 0 0 0.8  0 0 0 0.176470588235294 0  " in="shadowComposite" />
    </filter>
    <g id="widget82">
      <path d="M 1 6  A 5 5 0 0 1 6 1 L 755 1  A 5 5 0 0 1 760 6 L 760 360  A 5 5 0 0 1 755 365 L 6 365  A 5 5 0 0 1 1 360 L 1 6  Z " fill-rule="nonzero" fill="#ffffff" stroke="none" />
      <path d="M 0.5 6  A 5.5 5.5 0 0 1 6 0.5 L 755 0.5  A 5.5 5.5 0 0 1 760.5 6 L 760.5 360  A 5.5 5.5 0 0 1 755 365.5 L 6 365.5  A 5.5 5.5 0 0 1 0.5 360 L 0.5 6  Z " stroke-width="1" stroke="#cccccc" fill="none" stroke-opacity="0.556862745098039" />
    </g>
  </defs>
  <g transform="matrix(1 0 0 1 2 2 )">
    <use xlink:href="#widget82" filter="url(#filter81)" />
    <use xlink:href="#widget82" />
  </g>
</svg>