<?xml version="1.0" encoding="utf-8"?>
<svg version="1.1" xmlns:xlink="http://www.w3.org/1999/xlink" width="1260px" height="666px" xmlns="http://www.w3.org/2000/svg">
  <defs>
    <filter x="150px" y="368px" width="1260px" height="666px" filterUnits="userSpaceOnUse" id="filter73">
      <feOffset dx="0" dy="0" in="SourceAlpha" result="shadowOffsetInner" />
      <feGaussianBlur stdDeviation="5" in="shadowOffsetInner" result="shadowGaussian" />
      <feComposite in2="shadowGaussian" operator="atop" in="SourceAlpha" result="shadowComposite" />
      <feColorMatrix type="matrix" values="0 0 0 0 0.843137254901961  0 0 0 0 0.843137254901961  0 0 0 0 0.843137254901961  0 0 0 0.968627450980392 0  " in="shadowComposite" />
    </filter>
    <g id="widget74">
      <path d="M 162 380  L 1398 380  L 1398 1022  L 162 1022  L 162 380  Z " fill-rule="nonzero" fill="#ffffff" stroke="none" />
      <path d="M 161 380  A 1 1 0 0 1 162 379 L 1398 379  A 1 1 0 0 1 1399 380 L 1399 1022  A 1 1 0 0 1 1398 1023 L 162 1023  A 1 1 0 0 1 161 1022 L 161 380  Z " stroke-width="2" stroke="#d7d7d7" fill="none" stroke-opacity="0.458823529411765" />
    </g>
  </defs>
  <g transform="matrix(1 0 0 1 -150 -368 )">
    <use xlink:href="#widget74" filter="url(#filter73)" />
    <use xlink:href="#widget74" />
  </g>
</svg>