<?xml version="1.0" encoding="utf-8"?>
<svg version="1.1" xmlns:xlink="http://www.w3.org/1999/xlink" width="1260px" height="140px" xmlns="http://www.w3.org/2000/svg">
  <defs>
    <filter x="150px" y="80px" width="1260px" height="140px" filterUnits="userSpaceOnUse" id="filter75">
      <feOffset dx="0" dy="0" in="SourceAlpha" result="shadowOffsetInner" />
      <feGaussianBlur stdDeviation="5" in="shadowOffsetInner" result="shadowGaussian" />
      <feComposite in2="shadowGaussian" operator="atop" in="SourceAlpha" result="shadowComposite" />
      <feColorMatrix type="matrix" values="0 0 0 0 0.843137254901961  0 0 0 0 0.843137254901961  0 0 0 0 0.843137254901961  0 0 0 0.968627450980392 0  " in="shadowComposite" />
    </filter>
    <g id="widget76">
      <path d="M 162 92  L 1398 92  L 1398 208  L 162 208  L 162 92  Z " fill-rule="nonzero" fill="#ffffff" stroke="none" />
      <path d="M 161 92  A 1 1 0 0 1 162 91 L 1398 91  A 1 1 0 0 1 1399 92 L 1399 208  A 1 1 0 0 1 1398 209 L 162 209  A 1 1 0 0 1 161 208 L 161 92  Z " stroke-width="2" stroke="#d7d7d7" fill="none" stroke-opacity="0.458823529411765" />
    </g>
  </defs>
  <g transform="matrix(1 0 0 1 -150 -80 )">
    <use xlink:href="#widget76" filter="url(#filter75)" />
    <use xlink:href="#widget76" />
  </g>
</svg>