<?xml version="1.0" encoding="utf-8"?>
<svg version="1.1" xmlns:xlink="http://www.w3.org/1999/xlink" width="1260px" height="174px" xmlns="http://www.w3.org/2000/svg">
  <defs>
    <filter x="150px" y="206px" width="1260px" height="174px" filterUnits="userSpaceOnUse" id="filter79">
      <feOffset dx="0" dy="0" in="SourceAlpha" result="shadowOffsetInner" />
      <feGaussianBlur stdDeviation="5" in="shadowOffsetInner" result="shadowGaussian" />
      <feComposite in2="shadowGaussian" operator="atop" in="SourceAlpha" result="shadowComposite" />
      <feColorMatrix type="matrix" values="0 0 0 0 0.843137254901961  0 0 0 0 0.843137254901961  0 0 0 0 0.843137254901961  0 0 0 0.968627450980392 0  " in="shadowComposite" />
    </filter>
    <g id="widget80">
      <path d="M 162 218  L 1398 218  L 1398 368  L 162 368  L 162 218  Z " fill-rule="nonzero" fill="#ffffff" stroke="none" />
      <path d="M 161 218  A 1 1 0 0 1 162 217 L 1398 217  A 1 1 0 0 1 1399 218 L 1399 368  A 1 1 0 0 1 1398 369 L 162 369  A 1 1 0 0 1 161 368 L 161 218  Z " stroke-width="2" stroke="#d7d7d7" fill="none" stroke-opacity="0.458823529411765" />
    </g>
  </defs>
  <g transform="matrix(1 0 0 1 -150 -206 )">
    <use xlink:href="#widget80" filter="url(#filter79)" />
    <use xlink:href="#widget80" />
  </g>
</svg>