<?xml version="1.0" encoding="utf-8"?>
<svg version="1.1" xmlns:xlink="http://www.w3.org/1999/xlink" width="124px" height="35px" xmlns="http://www.w3.org/2000/svg">
  <defs>
    <filter x="123px" y="58px" width="124px" height="35px" filterUnits="userSpaceOnUse" id="filter85">
      <feOffset dx="3" dy="3" in="SourceAlpha" result="shadowOffsetInner" />
      <feGaussianBlur stdDeviation="2.5" in="shadowOffsetInner" result="shadowGaussian" />
      <feComposite in2="shadowGaussian" operator="atop" in="SourceAlpha" result="shadowComposite" />
      <feColorMatrix type="matrix" values="0 0 0 0 0.8  0 0 0 0 0.8  0 0 0 0 0.8  0 0 0 0.176470588235294 0  " in="shadowComposite" />
    </filter>
    <g id="widget86">
      <path d="M 125.5 68  A 7.5 7.5 0 0 1 133 60.5 L 238.5 60.5  L 238.5 84.5  L 133 84.5  A 7.5 7.5 0 0 1 125.5 77 L 125.5 68  Z " fill-rule="nonzero" fill="#409eff" stroke="none" fill-opacity="0.996078431372549" />
      <path d="M 125.5 68  A 7.5 7.5 0 0 1 133 60.5 L 238.5 60.5  L 238.5 84.5  L 133 84.5  A 7.5 7.5 0 0 1 125.5 77 L 125.5 68  Z " stroke-width="1" stroke="#cccccc" fill="none" />
    </g>
  </defs>
  <g transform="matrix(1 0 0 1 -123 -58 )">
    <use xlink:href="#widget86" filter="url(#filter85)" />
    <use xlink:href="#widget86" />
  </g>
</svg>