<?xml version="1.0" encoding="utf-8"?>
<svg version="1.1" xmlns:xlink="http://www.w3.org/1999/xlink" width="124px" height="35px" xmlns="http://www.w3.org/2000/svg">
  <defs>
    <filter x="235px" y="58px" width="124px" height="35px" filterUnits="userSpaceOnUse" id="filter89">
      <feOffset dx="3" dy="3" in="SourceAlpha" result="shadowOffsetInner" />
      <feGaussianBlur stdDeviation="2.5" in="shadowOffsetInner" result="shadowGaussian" />
      <feComposite in2="shadowGaussian" operator="atop" in="SourceAlpha" result="shadowComposite" />
      <feColorMatrix type="matrix" values="0 0 0 0 0.8  0 0 0 0 0.8  0 0 0 0 0.8  0 0 0 0.176470588235294 0  " in="shadowComposite" />
    </filter>
    <g id="widget90">
      <path d="M 237.5 60.5  L 343 60.5  A 7.5 7.5 0 0 1 350.5 68 L 350.5 77  A 7.5 7.5 0 0 1 343 84.5 L 237.5 84.5  L 237.5 60.5  Z " fill-rule="nonzero" fill="#409eff" stroke="none" fill-opacity="0.996078431372549" />
      <path d="M 237.5 60.5  L 343 60.5  A 7.5 7.5 0 0 1 350.5 68 L 350.5 77  A 7.5 7.5 0 0 1 343 84.5 L 237.5 84.5  L 237.5 60.5  Z " stroke-width="1" stroke="#cccccc" fill="none" />
    </g>
  </defs>
  <g transform="matrix(1 0 0 1 -235 -58 )">
    <use xlink:href="#widget90" filter="url(#filter89)" />
    <use xlink:href="#widget90" />
  </g>
</svg>