<?xml version="1.0" encoding="utf-8"?>
<svg version="1.1" xmlns:xlink="http://www.w3.org/1999/xlink" width="22px" height="22px" xmlns="http://www.w3.org/2000/svg">
  <g transform="matrix(1 0 0 1 -12 -9 )">
    <path d="M 22 11  C 22 17.16  17.16 22  11 22  C 4.83999999999998 22  0 17.16  0 11  C 0 4.84000000000003  4.83999999999998 0  11 0  C 17.16 0  22 4.84000000000003  22 11  Z M 13.0174887892376 4.310546875  C 12.8958146487295 4.18684895833331  12.7494768310912 4.125  12.5784753363229 4.125  L 9.42152466367713 4.125  C 9.25052316890879 4.125  9.10418535127053 4.18684895833331  8.98251121076231 4.310546875  C 8.86083707025409 4.43424479166669  8.80328849028399 4.58072916666669  8.809865470852 4.75  L 9.08609865470851 12.25  C 9.09267563527658 12.4192708333333  9.16008968609867 12.5657552083333  9.2883408071749 12.689453125  C 9.41659192825114 12.8131510416667  9.56621823617343 12.875  9.73721973094166 12.875  L 12.2627802690583 12.875  C 12.4337817638266 12.875  12.5834080717489 12.8131510416667  12.7116591928251 12.689453125  C 12.8399103139013 12.5657552083333  12.9073243647234 12.4192708333333  12.9139013452915 12.25  L 13.1901345291479 4.75  C 13.196711509716 4.58072916666669  13.1391629297459 4.43424479166669  13.0174887892376 4.310546875  Z M 12.7067264573991 14.623046875  C 12.5817638266069 14.4993489583333  12.4337817638266 14.4375  12.2627802690583 14.4375  L 9.73721973094166 14.4375  C 9.56621823617343 14.4375  9.4182361733931 14.4993489583333  9.2932735426009 14.623046875  C 9.1683109118087 14.7467447916667  9.1058295964126 14.8932291666666  9.1058295964126 15.0625  L 9.1058295964126 17.25  C 9.1058295964126 17.4192708333333  9.1683109118087 17.5657552083333  9.2932735426009 17.689453125  C 9.4182361733931 17.8131510416667  9.56621823617343 17.875  9.73721973094166 17.875  L 12.2627802690583 17.875  C 12.4337817638266 17.875  12.5817638266069 17.8131510416667  12.7067264573991 17.689453125  C 12.8316890881913 17.5657552083333  12.8941704035874 17.4192708333333  12.8941704035874 17.25  L 12.8941704035874 15.0625  C 12.8941704035874 14.8932291666666  12.8316890881913 14.7467447916667  12.7067264573991 14.623046875  Z " fill-rule="nonzero" fill="#ffffff" stroke="none" transform="matrix(1 0 0 1 12 9 )" />
  </g>
</svg>