<?xml version="1.0" encoding="utf-8"?>
<svg version="1.1" xmlns:xlink="http://www.w3.org/1999/xlink" width="471px" height="317px" xmlns="http://www.w3.org/2000/svg">
  <defs>
    <filter x="136px" y="-10px" width="471px" height="317px" filterUnits="userSpaceOnUse" id="filter91">
      <feOffset dx="0" dy="0" in="SourceAlpha" result="shadowOffsetInner" />
      <feGaussianBlur stdDeviation="5" in="shadowOffsetInner" result="shadowGaussian" />
      <feComposite in2="shadowGaussian" operator="atop" in="SourceAlpha" result="shadowComposite" />
      <feColorMatrix type="matrix" values="0 0 0 0 0.843137254901961  0 0 0 0 0.843137254901961  0 0 0 0 0.843137254901961  0 0 0 0.968627450980392 0  " in="shadowComposite" />
    </filter>
    <g id="widget92">
      <path d="M 148 2  L 595 2  L 595 295  L 148 295  L 148 2  Z " fill-rule="nonzero" fill="#ffffff" stroke="none" />
      <path d="M 147 2  A 1 1 0 0 1 148 1 L 595 1  A 1 1 0 0 1 596 2 L 596 295  A 1 1 0 0 1 595 296 L 148 296  A 1 1 0 0 1 147 295 L 147 2  Z " stroke-width="2" stroke="#d7d7d7" fill="none" stroke-opacity="0.458823529411765" />
    </g>
  </defs>
  <g transform="matrix(1 0 0 1 -136 10 )">
    <use xlink:href="#widget92" filter="url(#filter91)" />
    <use xlink:href="#widget92" />
  </g>
</svg>