<?xml version="1.0" encoding="utf-8"?>
<svg version="1.1" xmlns:xlink="http://www.w3.org/1999/xlink" width="286px" height="25px" viewBox="271 77  286 25" xmlns="http://www.w3.org/2000/svg">
  <path d="M 272 80  A 2 2 0 0 1 274 78 L 554 78  A 2 2 0 0 1 556 80 L 556 99  A 2 2 0 0 1 554 101 L 274 101  A 2 2 0 0 1 272 99 L 272 80  Z " fill-rule="nonzero" fill="#ffffff" stroke="none" />
  <path d="M 271.5 80  A 2.5 2.5 0 0 1 274 77.5 L 554 77.5  A 2.5 2.5 0 0 1 556.5 80 L 556.5 99  A 2.5 2.5 0 0 1 554 101.5 L 274 101.5  A 2.5 2.5 0 0 1 271.5 99 L 271.5 80  Z " stroke-width="1" stroke="#aaaaaa" fill="none" stroke-opacity="0.996078431372549" />
</svg>