<?xml version="1.0" encoding="utf-8"?>
<svg version="1.1" xmlns:xlink="http://www.w3.org/1999/xlink" width="153px" height="40px" xmlns="http://www.w3.org/2000/svg">
  <defs>
    <filter x="412px" y="130px" width="153px" height="40px" filterUnits="userSpaceOnUse" id="filter99">
      <feOffset dx="3" dy="3" in="SourceAlpha" result="shadowOffsetInner" />
      <feGaussianBlur stdDeviation="2.5" in="shadowOffsetInner" result="shadowGaussian" />
      <feComposite in2="shadowGaussian" operator="atop" in="SourceAlpha" result="shadowComposite" />
      <feColorMatrix type="matrix" values="0 0 0 0 0.8  0 0 0 0 0.8  0 0 0 0 0.8  0 0 0 0.176470588235294 0  " in="shadowComposite" />
    </filter>
    <g id="widget100">
      <path d="M 414.5 132.5  L 549 132.5  A 7.5 7.5 0 0 1 556.5 140 L 556.5 154  A 7.5 7.5 0 0 1 549 161.5 L 414.5 161.5  L 414.5 132.5  Z " fill-rule="nonzero" fill="#409eff" stroke="none" fill-opacity="0.996078431372549" />
      <path d="M 414.5 132.5  L 549 132.5  A 7.5 7.5 0 0 1 556.5 140 L 556.5 154  A 7.5 7.5 0 0 1 549 161.5 L 414.5 161.5  L 414.5 132.5  Z " stroke-width="1" stroke="#cccccc" fill="none" />
    </g>
  </defs>
  <g transform="matrix(1 0 0 1 -412 -130 )">
    <use xlink:href="#widget100" filter="url(#filter99)" />
    <use xlink:href="#widget100" />
  </g>
</svg>