<?xml version="1.0" encoding="utf-8"?>
<svg version="1.1" xmlns:xlink="http://www.w3.org/1999/xlink" width="270px" height="25px" viewBox="1020 300  270 25" xmlns="http://www.w3.org/2000/svg">
  <path d="M 1021 303  A 2 2 0 0 1 1023 301 L 1287 301  A 2 2 0 0 1 1289 303 L 1289 322  A 2 2 0 0 1 1287 324 L 1023 324  A 2 2 0 0 1 1021 322 L 1021 303  Z " fill-rule="nonzero" fill="#f0f0f0" stroke="none" />
  <path d="M 1020.5 303  A 2.5 2.5 0 0 1 1023 300.5 L 1287 300.5  A 2.5 2.5 0 0 1 1289.5 303 L 1289.5 322  A 2.5 2.5 0 0 1 1287 324.5 L 1023 324.5  A 2.5 2.5 0 0 1 1020.5 322 L 1020.5 303  Z " stroke-width="1" stroke="#aaaaaa" fill="none" stroke-opacity="0.996078431372549" />
</svg>