<?xml version="1.0" encoding="utf-8"?>
<svg version="1.1" xmlns:xlink="http://www.w3.org/1999/xlink" width="108px" height="30px" viewBox="389 111  108 30" xmlns="http://www.w3.org/2000/svg">
  <path d="M 390 114  A 2 2 0 0 1 392 112 L 494 112  A 2 2 0 0 1 496 114 L 496 138  A 2 2 0 0 1 494 140 L 392 140  A 2 2 0 0 1 390 138 L 390 114  Z " fill-rule="nonzero" fill="#f0f0f0" stroke="none" />
  <path d="M 389.5 114  A 2.5 2.5 0 0 1 392 111.5 L 494 111.5  A 2.5 2.5 0 0 1 496.5 114 L 496.5 138  A 2.5 2.5 0 0 1 494 140.5 L 392 140.5  A 2.5 2.5 0 0 1 389.5 138 L 389.5 114  Z " stroke-width="1" stroke="#aaaaaa" fill="none" stroke-opacity="0.996078431372549" />
</svg>