<?xml version="1.0" encoding="utf-8"?>
<svg version="1.1" xmlns:xlink="http://www.w3.org/1999/xlink" width="250px" height="25px" viewBox="389 68  250 25" xmlns="http://www.w3.org/2000/svg">
  <path d="M 390 71  A 2 2 0 0 1 392 69 L 636 69  A 2 2 0 0 1 638 71 L 638 90  A 2 2 0 0 1 636 92 L 392 92  A 2 2 0 0 1 390 90 L 390 71  Z " fill-rule="nonzero" fill="#ffffff" stroke="none" />
  <path d="M 389.5 71  A 2.5 2.5 0 0 1 392 68.5 L 636 68.5  A 2.5 2.5 0 0 1 638.5 71 L 638.5 90  A 2.5 2.5 0 0 1 636 92.5 L 392 92.5  A 2.5 2.5 0 0 1 389.5 90 L 389.5 71  Z " stroke-width="1" stroke="#aaaaaa" fill="none" stroke-opacity="0.996078431372549" />
</svg>