<?xml version="1.0" encoding="utf-8"?>
<svg version="1.1" xmlns:xlink="http://www.w3.org/1999/xlink" width="193px" height="21px" xmlns="http://www.w3.org/2000/svg">
  <g transform="matrix(1 0 0 1 -262 -153 )">
    <path d="M 262.5 158  A 4.5 4.5 0 0 1 267 153.5 L 450 153.5  A 4.5 4.5 0 0 1 454.5 158 L 454.5 169  A 4.5 4.5 0 0 1 450 173.5 L 267 173.5  A 4.5 4.5 0 0 1 262.5 169 L 262.5 158  Z " fill-rule="nonzero" fill="#ffffff" stroke="none" />
    <path d="M 262.5 158  A 4.5 4.5 0 0 1 267 153.5 L 450 153.5  A 4.5 4.5 0 0 1 454.5 158 L 454.5 169  A 4.5 4.5 0 0 1 450 173.5 L 267 173.5  A 4.5 4.5 0 0 1 262.5 169 L 262.5 158  Z " stroke-width="1" stroke="#00ff00" fill="none" />
  </g>
</svg>