<?xml version="1.0" encoding="utf-8"?>
<svg version="1.1" xmlns:xlink="http://www.w3.org/1999/xlink" width="193px" height="21px" xmlns="http://www.w3.org/2000/svg">
  <g transform="matrix(1 0 0 1 -262 -153 )">
    <path d="M 263 158  A 4 4 0 0 1 267 154 L 450 154  A 4 4 0 0 1 454 158 L 454 169  A 4 4 0 0 1 450 173 L 267 173  A 4 4 0 0 1 263 169 L 263 158  Z " fill-rule="nonzero" fill="#ffffff" stroke="none" />
    <path d="M 262.5 158  A 4.5 4.5 0 0 1 267 153.5 L 450 153.5  A 4.5 4.5 0 0 1 454.5 158 L 454.5 169  A 4.5 4.5 0 0 1 450 173.5 L 267 173.5  A 4.5 4.5 0 0 1 262.5 169 L 262.5 158  Z " stroke-width="1" stroke="#0066ff" fill="none" stroke-opacity="0.447058823529412" />
  </g>
</svg>