<?xml version="1.0" encoding="utf-8"?>
<svg version="1.1" xmlns:xlink="http://www.w3.org/1999/xlink" width="121px" height="22px" viewBox="568 152  121 22" xmlns="http://www.w3.org/2000/svg">
  <path d="M 569 155  A 2 2 0 0 1 571 153 L 686 153  A 2 2 0 0 1 688 155 L 688 171  A 2 2 0 0 1 686 173 L 571 173  A 2 2 0 0 1 569 171 L 569 155  Z " fill-rule="nonzero" fill="#f0f0f0" stroke="none" />
  <path d="M 568.5 155  A 2.5 2.5 0 0 1 571 152.5 L 686 152.5  A 2.5 2.5 0 0 1 688.5 155 L 688.5 171  A 2.5 2.5 0 0 1 686 173.5 L 571 173.5  A 2.5 2.5 0 0 1 568.5 171 L 568.5 155  Z " stroke-width="1" stroke="#aaaaaa" fill="none" stroke-opacity="0.996078431372549" />
</svg>