<?xml version="1.0" encoding="utf-8"?>
<svg version="1.1" xmlns:xlink="http://www.w3.org/1999/xlink" width="153px" height="21px" xmlns="http://www.w3.org/2000/svg">
  <g transform="matrix(1 0 0 1 -1034 -153 )">
    <path d="M 1035 158  A 4 4 0 0 1 1039 154 L 1182 154  A 4 4 0 0 1 1186 158 L 1186 169  A 4 4 0 0 1 1182 173 L 1039 173  A 4 4 0 0 1 1035 169 L 1035 158  Z " fill-rule="nonzero" fill="#ffffff" stroke="none" />
    <path d="M 1034.5 158  A 4.5 4.5 0 0 1 1039 153.5 L 1182 153.5  A 4.5 4.5 0 0 1 1186.5 158 L 1186.5 169  A 4.5 4.5 0 0 1 1182 173.5 L 1039 173.5  A 4.5 4.5 0 0 1 1034.5 169 L 1034.5 158  Z " stroke-width="1" stroke="#797979" fill="none" stroke-opacity="0.4" />
  </g>
</svg>