<?xml version="1.0" encoding="utf-8"?>
<svg version="1.1" xmlns:xlink="http://www.w3.org/1999/xlink" width="477px" height="584px" xmlns="http://www.w3.org/2000/svg">
  <defs>
    <filter x="533px" y="307px" width="477px" height="584px" filterUnits="userSpaceOnUse" id="filter111">
      <feOffset dx="5" dy="5" in="SourceAlpha" result="shadowOffsetInner" />
      <feGaussianBlur stdDeviation="5" in="shadowOffsetInner" result="shadowGaussian" />
      <feComposite in2="shadowGaussian" operator="atop" in="SourceAlpha" result="shadowComposite" />
      <feColorMatrix type="matrix" values="0 0 0 0 0.8  0 0 0 0 0.8  0 0 0 0 0.8  0 0 0 0.23921568627451 0  " in="shadowComposite" />
    </filter>
    <g id="widget112">
      <path d="M 539 315  A 2 2 0 0 1 541 313 L 992 313  A 2 2 0 0 1 994 315 L 994 873  A 2 2 0 0 1 992 875 L 541 875  A 2 2 0 0 1 539 873 L 539 315  Z " fill-rule="nonzero" fill="#ffffff" stroke="none" />
      <path d="M 538.5 315  A 2.5 2.5 0 0 1 541 312.5 L 992 312.5  A 2.5 2.5 0 0 1 994.5 315 L 994.5 873  A 2.5 2.5 0 0 1 992 875.5 L 541 875.5  A 2.5 2.5 0 0 1 538.5 873 L 538.5 315  Z " stroke-width="1" stroke="#cccccc" fill="none" stroke-opacity="0.329411764705882" />
    </g>
  </defs>
  <g transform="matrix(1 0 0 1 -533 -307 )">
    <use xlink:href="#widget112" filter="url(#filter111)" />
    <use xlink:href="#widget112" />
  </g>
</svg>