<?xml version="1.0" encoding="utf-8"?>
<svg version="1.1" xmlns:xlink="http://www.w3.org/1999/xlink" width="193px" height="25px" viewBox="653 674  193 25" xmlns="http://www.w3.org/2000/svg">
  <path d="M 654 677  A 2 2 0 0 1 656 675 L 843 675  A 2 2 0 0 1 845 677 L 845 696  A 2 2 0 0 1 843 698 L 656 698  A 2 2 0 0 1 654 696 L 654 677  Z " fill-rule="nonzero" fill="#ffffff" stroke="none" />
  <path d="M 653.5 677  A 2.5 2.5 0 0 1 656 674.5 L 843 674.5  A 2.5 2.5 0 0 1 845.5 677 L 845.5 696  A 2.5 2.5 0 0 1 843 698.5 L 656 698.5  A 2.5 2.5 0 0 1 653.5 696 L 653.5 677  Z " stroke-width="1" stroke="#aaaaaa" fill="none" stroke-opacity="0.996078431372549" />
</svg>