<?xml version="1.0" encoding="utf-8"?>
<svg version="1.1" xmlns:xlink="http://www.w3.org/1999/xlink" width="9px" height="10px" xmlns="http://www.w3.org/2000/svg">
  <g transform="matrix(1 0 0 1 -560 -374 )">
    <path d="M 6.91678321678322 5  L 8.59090909090909 6.00260416666667  C 8.78391608391608 6.11545138888889  8.90874125874126 6.28363715277778  8.96538461538461 6.50716145833333  C 9.02202797202797 6.73068576388889  8.9958041958042 6.94227430555556  8.88671328671329 7.14192708333333  L 8.48391608391608 7.85807291666667  C 8.37482517482518 8.05772569444444  8.21223776223776 8.18684895833333  7.99615384615385 8.24544270833333  C 7.78006993006993 8.30403645833333  7.57552447552448 8.27690972222222  7.38251748251748 8.1640625  L 5.70839160839161 7.16796875  L 5.70839160839161 9.16666666666667  C 5.70839160839161 9.39236111111111  5.62867132867133 9.58767361111111  5.46923076923077 9.75260416666667  C 5.30979020979021 9.91753472222222  5.12097902097902 10  4.9027972027972 10  L 4.0972027972028 10  C 3.87902097902098 10  3.69020979020979 9.91753472222222  3.53076923076923 9.75260416666667  C 3.37132867132867 9.58767361111111  3.29160839160839 9.39236111111111  3.29160839160839 9.16666666666667  L 3.29160839160839 7.16796875  L 1.61748251748252 8.1640625  C 1.42447552447552 8.27690972222222  1.21993006993007 8.30403645833333  1.00384615384615 8.24544270833333  C 0.787762237762238 8.18684895833333  0.625174825174825 8.05772569444444  0.516083916083916 7.85807291666667  L 0.113286713286713 7.14192708333333  C 0.00419580419580423 6.94227430555556  -0.022027972027972 6.73068576388889  0.0346153846153846 6.50716145833333  C 0.0912587412587413 6.28363715277778  0.216083916083916 6.11545138888889  0.409090909090909 6.00260416666667  L 2.08321678321678 5  L 0.409090909090909 3.99739583333333  C 0.216083916083916 3.88454861111111  0.0912587412587413 3.71636284722222  0.0346153846153846 3.49283854166667  C -0.022027972027972 3.26931423611111  0.00419580419580423 3.05772569444444  0.113286713286713 2.85807291666667  L 0.516083916083916 2.14192708333333  C 0.625174825174825 1.94227430555555  0.787762237762238 1.81315104166667  1.00384615384615 1.75455729166667  C 1.21993006993007 1.69596354166667  1.42447552447552 1.72309027777778  1.61748251748252 1.8359375  L 3.29160839160839 2.83203125  L 3.29160839160839 0.833333333333334  C 3.29160839160839 0.607638888888888  3.37132867132867 0.412326388888888  3.53076923076923 0.247395833333334  C 3.69020979020979 0.0824652777777768  3.87902097902098 0  4.0972027972028 0  L 4.9027972027972 0  C 5.12097902097902 0  5.30979020979021 0.0824652777777768  5.46923076923077 0.247395833333334  C 5.62867132867133 0.412326388888888  5.70839160839161 0.607638888888888  5.70839160839161 0.833333333333334  L 5.70839160839161 2.83203125  L 7.38251748251748 1.8359375  C 7.57552447552448 1.72309027777778  7.78006993006993 1.69596354166667  7.99615384615385 1.75455729166667  C 8.21223776223776 1.81315104166667  8.37482517482518 1.94227430555555  8.48391608391608 2.14192708333333  L 8.88671328671329 2.85807291666667  C 8.9958041958042 3.05772569444444  9.02202797202797 3.26931423611111  8.96538461538461 3.49283854166667  C 8.90874125874126 3.71636284722222  8.78391608391608 3.88454861111111  8.59090909090909 3.99739583333333  L 6.91678321678322 5  Z " fill-rule="nonzero" fill="#ff3333" stroke="none" transform="matrix(1 0 0 1 560 374 )" />
  </g>
</svg>