<?xml version="1.0" encoding="utf-8"?>
<svg version="1.1" xmlns:xlink="http://www.w3.org/1999/xlink" width="1260px" height="955px" xmlns="http://www.w3.org/2000/svg">
  <defs>
    <filter x="150px" y="90px" width="1260px" height="955px" filterUnits="userSpaceOnUse" id="filter153">
      <feOffset dx="0" dy="0" in="SourceAlpha" result="shadowOffsetInner" />
      <feGaussianBlur stdDeviation="5" in="shadowOffsetInner" result="shadowGaussian" />
      <feComposite in2="shadowGaussian" operator="atop" in="SourceAlpha" result="shadowComposite" />
      <feColorMatrix type="matrix" values="0 0 0 0 0.843137254901961  0 0 0 0 0.843137254901961  0 0 0 0 0.843137254901961  0 0 0 0.968627450980392 0  " in="shadowComposite" />
    </filter>
    <g id="widget154">
      <path d="M 162 102  L 1398 102  L 1398 1033  L 162 1033  L 162 102  Z " fill-rule="nonzero" fill="#ffffff" stroke="none" />
      <path d="M 161 102  A 1 1 0 0 1 162 101 L 1398 101  A 1 1 0 0 1 1399 102 L 1399 1033  A 1 1 0 0 1 1398 1034 L 162 1034  A 1 1 0 0 1 161 1033 L 161 102  Z " stroke-width="2" stroke="#d7d7d7" fill="none" stroke-opacity="0.458823529411765" />
    </g>
  </defs>
  <g transform="matrix(1 0 0 1 -150 -90 )">
    <use xlink:href="#widget154" filter="url(#filter153)" />
    <use xlink:href="#widget154" />
  </g>
</svg>