<?xml version="1.0" encoding="utf-8"?>
<svg version="1.1" xmlns:xlink="http://www.w3.org/1999/xlink" width="520px" height="677px" xmlns="http://www.w3.org/2000/svg">
  <defs>
    <filter x="-10px" y="-10px" width="520px" height="677px" filterUnits="userSpaceOnUse" id="filter155">
      <feOffset dx="0" dy="0" in="SourceAlpha" result="shadowOffsetInner" />
      <feGaussianBlur stdDeviation="5" in="shadowOffsetInner" result="shadowGaussian" />
      <feComposite in2="shadowGaussian" operator="atop" in="SourceAlpha" result="shadowComposite" />
      <feColorMatrix type="matrix" values="0 0 0 0 0.843137254901961  0 0 0 0 0.843137254901961  0 0 0 0 0.843137254901961  0 0 0 0.968627450980392 0  " in="shadowComposite" />
    </filter>
    <g id="widget156">
      <path d="M 2 2  L 498 2  L 498 655  L 2 655  L 2 2  Z " fill-rule="nonzero" fill="#ffffff" stroke="none" />
      <path d="M 1 2  A 1 1 0 0 1 2 1 L 498 1  A 1 1 0 0 1 499 2 L 499 655  A 1 1 0 0 1 498 656 L 2 656  A 1 1 0 0 1 1 655 L 1 2  Z " stroke-width="2" stroke="#d7d7d7" fill="none" stroke-opacity="0.458823529411765" />
    </g>
  </defs>
  <g transform="matrix(1 0 0 1 10 10 )">
    <use xlink:href="#widget156" filter="url(#filter155)" />
    <use xlink:href="#widget156" />
  </g>
</svg>