<?xml version="1.0" encoding="utf-8"?>
<svg version="1.1" xmlns:xlink="http://www.w3.org/1999/xlink" width="341px" height="25px" viewBox="129 113  341 25" xmlns="http://www.w3.org/2000/svg">
  <path d="M 130 116  A 2 2 0 0 1 132 114 L 467 114  A 2 2 0 0 1 469 116 L 469 135  A 2 2 0 0 1 467 137 L 132 137  A 2 2 0 0 1 130 135 L 130 116  Z " fill-rule="nonzero" fill="#ffffff" stroke="none" />
  <path d="M 129.5 116  A 2.5 2.5 0 0 1 132 113.5 L 467 113.5  A 2.5 2.5 0 0 1 469.5 116 L 469.5 135  A 2.5 2.5 0 0 1 467 137.5 L 132 137.5  A 2.5 2.5 0 0 1 129.5 135 L 129.5 116  Z " stroke-width="1" stroke="#aaaaaa" fill="none" stroke-opacity="0.996078431372549" />
</svg>